<svg width="52" height="52" viewBox="0 0 52 52" fill="none" xmlns="http://www.w3.org/2000/svg">
<g clip-path="url(#clip0)">
<path d="M5.16277 17.9238H1.60647C-0.537643 18.0099 -0.533337 21.0711 1.60647 21.1529H3.54823V31.9036C3.63434 34.0477 6.69551 34.0434 6.77731 31.9036V19.5383C6.77731 18.6471 6.054 17.9238 5.16277 17.9238ZM49.6725 30.3751C48.7813 30.3751 48.058 31.0985 48.058 31.9897C48.1441 34.1338 51.2052 34.1338 51.287 31.9897C51.287 31.0985 50.5637 30.3751 49.6725 30.3751ZM43.7611 19.4694C43.7611 18.5782 43.0378 17.8549 42.1466 17.8549C40.0025 17.941 40.0025 21.0022 42.1466 21.084C43.0378 21.084 43.7611 20.3607 43.7611 19.4694ZM49.595 18.0142C48.7899 17.631 47.8255 17.9711 47.4423 18.772L41.4491 31.2922C41.0659 32.0973 41.406 33.0617 42.2068 33.4449C42.9947 33.8281 43.9764 33.4966 44.3596 32.6872L50.3528 20.1669C50.7359 19.3618 50.3958 18.3974 49.595 18.0142ZM32.2225 17.7946C30.4013 17.7946 28.7179 18.6643 27.4779 20.2401C25.1142 23.1291 25.1142 28.188 27.4779 31.0726C29.9363 34.3189 34.513 34.3189 36.9714 31.0726C39.3351 28.1837 39.3351 23.1248 36.9714 20.2401C35.7315 18.6643 34.0437 17.7946 32.2268 17.7946H32.2225ZM32.2225 30.289C30.4314 30.289 28.9202 28.1664 28.9202 25.6564C28.9202 23.1463 30.4314 21.0237 32.2225 21.0237C34.0136 21.0237 35.5248 23.1463 35.5248 25.6564C35.5248 28.1664 34.0136 30.289 32.2225 30.289ZM16.3742 33.5181C18.1954 33.5181 19.8788 32.6484 21.1188 31.0726C23.4825 28.1837 23.4825 23.1291 21.1188 20.2401C18.6604 16.9938 14.0837 16.9938 11.6252 20.2401C9.26156 23.1291 9.26156 28.188 11.6252 31.0726C12.8652 32.6484 14.553 33.5181 16.3699 33.5181H16.3742ZM16.3742 21.0237C18.1652 21.0237 19.6764 23.1463 19.6764 25.6564C19.6764 28.1664 18.1652 30.289 16.3742 30.289C14.5831 30.289 13.0719 28.1664 13.0719 25.6564C13.0719 23.1463 14.5831 21.0237 16.3742 21.0237Z" fill="#407AB9"/>
<path d="M9.78406 9.20523C9.22435 9.74341 8.33313 9.72619 7.79495 9.16648C7.25676 8.60677 7.27399 7.71555 7.83369 7.17737C10.2275 4.87826 13.0218 3.08288 16.0442 1.86444C19.0709 0.646 22.3258 0.000183105 25.641 0.000183105C28.9605 0.000183105 32.2154 0.646 35.2465 1.86875C38.2732 3.08719 41.0674 4.88687 43.4656 7.19028C44.0253 7.72846 44.0425 8.61969 43.5043 9.1794C42.9662 9.73911 42.0749 9.75633 41.5152 9.21815C39.384 7.16445 36.8955 5.56713 34.2003 4.48215C31.5094 3.39718 28.6075 2.82456 25.641 2.82456C22.6789 2.82456 19.777 3.39718 17.0904 4.47785C14.3995 5.56282 11.911 7.16014 9.77976 9.20523H9.78406Z" fill="#407AB9"/>
<path d="M7.83369 44.3634C7.27399 43.8253 7.25676 42.934 7.79495 42.3743C8.33313 41.8146 9.22435 41.7974 9.78406 42.3356C11.9153 44.385 14.3995 45.9823 17.0947 47.063C19.7813 48.1436 22.6832 48.7163 25.6453 48.7163C28.6204 48.7163 31.5352 48.1393 34.239 47.0414C36.9471 45.9435 39.4443 44.329 41.5755 42.2624C42.1309 41.7199 43.0221 41.7328 43.5646 42.2882C44.1071 42.8436 44.0942 43.7348 43.5388 44.2773C41.1363 46.6066 38.3335 48.4192 35.2981 49.6505C32.2585 50.8819 28.9821 51.532 25.6453 51.532C22.3301 51.532 19.0752 50.8905 16.0485 49.6678C13.0218 48.4493 10.2318 46.6539 7.838 44.3548L7.83369 44.3634Z" fill="#407AB9"/>
</g>
<defs>
<clipPath id="clip0">
<rect width="51.2865" height="51.5409" fill="white"/>
</clipPath>
</defs>
</svg>
