<svg width="65" height="52" viewBox="0 0 65 52" fill="none" xmlns="http://www.w3.org/2000/svg">
<g clip-path="url(#clip0)">
<path d="M16.1754 9.20423C15.6148 9.74258 14.7237 9.72402 14.1854 9.16711C13.647 8.60648 13.6656 7.71543 14.2225 7.17708C16.6172 4.87519 19.4092 3.08194 22.4351 1.86416C25.4647 0.646382 28.717 0.000366211 32.0325 0.000366211C35.3517 0.000366211 38.6078 0.646382 41.6373 1.86787C44.6669 3.08936 47.4589 4.88632 49.8536 7.19193C50.4142 7.73028 50.4328 8.62133 49.8908 9.18196C49.3524 9.74258 48.4614 9.76114 47.9007 9.21908C45.7696 7.16594 43.2821 5.56575 40.5866 4.48164C37.8949 3.39752 34.9916 2.82576 32.0288 2.82576C29.066 2.82576 26.1664 3.39752 23.4784 4.47792C20.7866 5.56204 18.2991 7.15852 16.168 9.20795L16.1754 9.20423Z" fill="#407AB9"/>
<path d="M14.1941 44.3638C13.6334 43.8255 13.6149 42.9344 14.1569 42.3738C14.6953 41.8132 15.5863 41.7946 16.147 42.3367C18.2781 44.3861 20.7619 45.9826 23.4573 47.0667C26.1453 48.1508 29.045 48.7189 32.0077 48.7189C34.9854 48.7189 37.8999 48.1397 40.6027 47.0444C43.313 45.9454 45.808 44.3341 47.9391 42.2661C48.496 41.7241 49.3871 41.7352 49.9291 42.2921C50.4712 42.849 50.46 43.7401 49.9031 44.2821C47.501 46.61 44.6979 48.4255 41.6646 49.6545C38.6238 50.8871 35.3492 51.5368 32.0115 51.5368C28.696 51.5368 25.4436 50.8945 22.414 49.673C19.3882 48.4552 16.5962 46.662 14.2015 44.3601L14.1941 44.3638Z" fill="#407AB9"/>
<path d="M2.87346 27.6825H5.79167C7.08742 27.6825 7.80026 28.2877 7.80026 29.6503C7.80026 30.8606 7.2582 31.618 6.04785 31.618H3.23731C2.97742 31.618 2.86975 31.5326 2.86975 31.2504V27.6825H2.87346ZM8.70988 26.1491C9.59722 25.5885 10.2432 24.5267 10.2432 23.2087C10.2432 20.4427 8.40544 19.0801 5.79167 19.0801H2.11606C1.03566 19.0801 -0.00390625 19.3623 -0.00390625 20.981V32.3049C-0.00390625 33.9273 1.03195 34.2058 2.11606 34.2058H6.35229C8.96606 34.2058 10.8039 32.3903 10.8039 29.6465C10.8039 27.9832 10.0465 26.7952 8.70617 26.1454L8.70988 26.1491ZM5.49094 25.091H2.87718V22.0429C2.87718 21.7607 2.98484 21.6753 3.24474 21.6753H5.49094C6.70129 21.6753 7.24335 22.2805 7.24335 23.3832C7.24335 24.419 6.68273 25.091 5.49094 25.091ZM12.3224 26.6467C12.3224 31.2282 13.8557 34.4508 18.4595 34.4508C23.0633 34.4508 24.5967 31.2319 24.5967 26.6467C24.5967 22.0429 23.041 18.8425 18.4595 18.8425C13.878 18.8425 12.3224 22.0429 12.3224 26.6467ZM21.6599 26.6467C21.6599 28.982 21.2478 31.9002 18.4595 31.9002C15.6713 31.9002 15.2591 28.982 15.2591 26.6467C15.2591 24.2891 15.6267 21.3746 18.4595 21.3746C21.2701 21.3746 21.6599 24.2928 21.6599 26.6467ZM29.7871 19.7076C29.4826 19.1469 28.9443 18.9947 28.2537 18.9947C27.5631 18.9947 26.7612 19.21 26.7612 19.9897V33.389C26.7612 34.1872 27.474 34.4063 28.1646 34.4063C28.8552 34.4063 29.568 34.1909 29.568 33.389V24.4413C29.8725 25.1987 30.2586 25.9561 30.563 26.4722L34.8215 33.6897C35.1445 34.2318 35.6643 34.4026 36.3549 34.4026C37.0455 34.4026 37.8697 34.1872 37.8697 33.3853V19.986C37.8697 19.2063 37.1568 18.991 36.4663 18.991C35.7757 18.991 35.0629 19.2063 35.0629 19.986V28.8706C34.7584 28.1355 34.3723 27.4449 34.0456 26.9251L29.7871 19.7076ZM43.5316 19.9897C43.5316 19.21 42.8188 18.9947 42.1059 18.9947C41.3931 18.9947 40.6802 19.21 40.6802 19.9897V28.7666C40.6802 32.7875 42.9487 34.4508 46.1268 34.4508C49.3272 34.4508 51.5957 32.7875 51.5957 28.7666V19.9897C51.5957 19.21 50.8828 18.9947 50.17 18.9947C49.4571 18.9947 48.7443 19.21 48.7443 19.9897V29.0228C48.7443 30.6638 47.8161 31.8556 46.1305 31.8556C44.4449 31.8556 43.5353 30.6675 43.5353 29.0228V19.9897H43.5316ZM56.0881 29.977C55.8059 29.1973 55.0299 29.0042 54.2948 29.1787C53.6265 29.331 53.2144 29.8062 53.3666 30.5413C53.9495 33.285 56.3702 34.5177 58.791 34.5177C61.9691 34.5177 64.0853 32.7244 64.0853 29.7394C64.063 26.5835 61.427 25.6776 59.0063 25.0502C58.0781 24.8126 56.4779 24.445 56.4556 23.0824C56.4556 21.7644 57.536 21.3115 58.5533 21.3115C60.0236 21.3115 60.651 21.8944 61.1485 23.0416C61.4307 23.7322 62.1658 23.7767 62.7487 23.7099C63.5692 23.6245 64.0222 23.0824 63.8514 22.4364C63.1163 19.7113 60.8701 18.8276 58.4679 18.8276C56.0027 18.8276 53.582 20.3424 53.582 23.1084C53.582 26.1343 56.1957 27.107 58.5311 27.7122C59.5892 27.9944 61.2339 28.3805 61.2339 29.873C61.2339 31.3878 60.0681 32.0116 58.7501 32.0116C57.4766 32.0116 56.5225 31.2319 56.0918 29.9807L56.0881 29.977Z" fill="#407AB9"/>
</g>
<defs>
<clipPath id="clip0">
<rect width="64.0855" height="51.5409" fill="white"/>
</clipPath>
</defs>
</svg>
