<svg width="97" height="68" viewBox="0 0 97 68" fill="none" xmlns="http://www.w3.org/2000/svg">
<g clip-path="url(#clip0)">
<path d="M69.659 32.4284C67.732 32.4284 66.1601 33.0132 65.2729 33.4381C65.2761 32.1056 65.2761 31.2994 65.2761 31.2278C65.2761 30.9189 65.4371 30.9576 65.4371 30.9576C65.8242 30.9189 66.1358 30.5092 66.1358 30.1597C66.1358 29.8172 65.9545 29.7582 65.7596 29.7785C65.5885 29.7944 65.5316 29.7785 65.5316 29.7785H49.0776H47.3153H30.8606C30.8606 29.7785 30.807 29.7944 30.6364 29.7785C30.4397 29.7582 30.2564 29.8178 30.2564 30.1597C30.2564 30.5092 30.5706 30.9189 30.9571 30.9576C30.9571 30.9576 31.1167 30.9189 31.1167 31.2278C31.1167 31.2994 31.1167 32.1056 31.1199 33.4381C30.2328 33.0132 28.6609 32.4284 26.7294 32.4284C23.6942 32.4284 24.0742 34.4948 25.8486 34.4948C27.6178 34.4948 28.5018 34.9077 29.2625 35.8337C29.7748 36.4603 30.6831 36.6157 31.2209 36.6556C31.6054 41.051 32.7921 45.5364 32.7921 45.5364C32.7921 45.5364 33.2616 46.7566 33.7393 47.4759C34.067 47.9661 34.9299 49.6057 38.7776 50.2298C41.1006 50.6167 42.2222 50.8076 48.1948 50.8107C54.1662 50.8076 55.2897 50.6167 57.6134 50.2298C61.4617 49.6063 62.3227 47.9661 62.6497 47.4759C63.1288 46.7566 63.5976 45.5364 63.5976 45.5364C63.5976 45.5364 64.7869 41.051 65.1656 36.6556C65.706 36.6157 66.6162 36.4603 67.1252 35.8337C67.8872 34.907 68.7757 34.4948 70.5437 34.4948C72.3161 34.4948 72.6968 32.4284 69.6565 32.4284H69.659Z" fill="#72645B"/>
<path d="M44.4787 18.5047C39.6992 18.1413 36.7994 14.1912 36.7994 10.0566C36.7994 5.73485 39.9687 1.58117 45.1264 1.54566H45.1966V0H45.1123C38.1483 0.0431287 33.9922 5.04986 33.9922 10.0566C33.9922 14.9079 37.8954 19.7136 44.4787 20.0447V18.5041V18.5047Z" fill="#D46229"/>
<path d="M53.4031 10.0021C52.7599 10.3991 52.2259 10.8335 51.669 11.4697C51.4888 11.6714 50.6112 12.7788 50.8131 14.6409C50.852 14.9942 51.1688 15.3386 51.4652 15.3506C51.8261 15.4147 52.6162 14.7741 53.0901 12.4141C53.1942 11.9086 53.3699 11.0473 53.4031 10.0027V10.0021ZM45.0282 0C47.5454 0.036152 49.9655 0.937415 51.7533 2.57821C53.3137 4.01414 54.2622 5.7951 54.593 7.89636C57.5465 6.76296 60.1869 7.84498 61.587 9.55554C63.2713 11.6118 63.2496 14.3688 61.5372 16.4232C59.577 18.7806 56.8279 20.2775 54.6186 21.4775C52.8621 22.4345 51.2014 23.3409 51.1037 24.1349C51.0622 24.4984 51.3458 24.9582 51.9577 25.5106L52.4501 25.9635L51.5457 26.937L51.052 26.4918C50.0952 25.6223 49.6762 24.8009 49.7758 23.977C49.9566 22.5056 51.7309 21.5409 53.9741 20.313C56.0838 19.1675 58.7096 17.7373 60.5108 15.5777C62.1037 13.6616 61.5276 11.5883 60.551 10.3959C59.4939 9.10396 57.358 8.08663 54.7208 9.28282C54.7521 10.3439 54.646 11.4767 54.4033 12.6729C53.6835 16.2437 52.2208 16.7213 51.4103 16.6807C50.4407 16.6382 49.6532 15.7959 49.482 14.7767C49.0604 12.2555 50.3194 10.9877 50.6611 10.5976C51.4978 9.63673 52.3045 9.06717 53.3431 8.49572C53.1508 6.88537 52.5063 5.08158 50.8437 3.55304C49.0624 1.91542 46.9788 1.36236 44.9375 1.53868L45.0288 0L45.0282 0Z" fill="#D46229"/>
<path d="M7.61163 64.2773C7.44939 66.045 6.4268 67.0592 4.80445 67.0592C1.91424 67.0592 1.68941 63.9672 1.68941 63.0196C1.68941 61.1708 2.22977 58.9681 4.80445 58.9681C6.34632 58.9681 7.47111 60.1586 7.66911 62.0004L7.67869 62.0835H8.58567V58.2374H7.77003L7.42959 59.0651C6.61267 58.3941 5.63606 58.0269 4.66393 58.0269C1.74371 58.0269 0 59.8915 0 63.0196C0 66.1376 1.69133 67.9997 4.52405 67.9997C7.1064 67.9997 8.5499 66.7179 8.69872 64.2926L8.70511 64.1917H7.61929L7.61163 64.2773Z" fill="#4F4E51"/>
<path d="M14.4728 67.0593C11.9186 67.0593 11.0078 64.9726 11.0078 63.0198C11.0078 61.06 11.9186 58.9682 14.4728 58.9682C17.0277 58.9682 17.9392 61.06 17.9392 63.0198C17.9392 64.9733 17.0277 67.0593 14.4728 67.0593ZM14.4728 58.0258C10.9311 58.0258 9.31836 60.6141 9.31836 63.0192C9.31836 65.4173 10.9311 67.9993 14.4728 67.9993C18.0158 67.9993 19.6279 65.4166 19.6279 63.0192C19.6279 60.6135 18.0158 58.0258 14.4728 58.0258Z" fill="#4F4E51"/>
<path d="M25.5738 67.0593C23.0202 67.0593 22.1094 64.9726 22.1094 63.0198C22.1094 61.06 23.0202 58.9682 25.5738 58.9682C28.1287 58.9682 29.0401 61.06 29.0401 63.0198C29.0401 64.9733 28.1287 67.0593 25.5738 67.0593ZM25.5738 58.0258C22.034 58.0258 20.4219 60.6141 20.4219 63.0192C20.4219 65.4173 22.034 67.9993 25.5738 67.9993C29.1168 67.9993 30.7295 65.4166 30.7295 63.0192C30.7295 60.6135 29.1168 58.0258 25.5738 58.0258Z" fill="#4F4E51"/>
<path d="M40.6544 66.2808L36.868 62.3428L39.177 60.2631C39.8138 59.691 40.4097 59.2166 41.2586 59.2166H41.9701V58.3052H37.0437V59.2166H38.0343C38.4074 59.2166 38.4744 59.2711 38.4744 59.3866C38.4744 59.462 38.385 59.5756 38.2949 59.6517L34.4709 63.0868V58.3058H31.2422V59.2172H32.3727C32.7534 59.2172 32.9227 59.4107 32.9227 59.8458V66.1939C32.9227 66.6068 32.7477 66.8085 32.3881 66.8085H31.2422V67.7199H36.1258V66.8085H35.0094C34.6478 66.8085 34.4716 66.6068 34.4716 66.1939V64.4555L35.7867 63.2796L38.3716 66.0487C38.4533 66.1387 38.53 66.2142 38.5977 66.2789C38.7363 66.4172 38.8366 66.5167 38.8366 66.5973C38.8366 66.799 38.4137 66.8079 38.3294 66.8079H37.197V67.7193H42.4888V66.8079H41.7779C41.3538 66.8079 41.0076 66.6455 40.655 66.2821L40.6544 66.2808Z" fill="#4F4E51"/>
<path d="M51.872 59.2173H53.0319C53.4171 59.2173 53.5812 59.405 53.5812 59.8452V62.4944H48.7531V59.8452C48.7531 59.4107 48.923 59.2173 49.3031 59.2173H50.4636V58.3052H45.5078V59.2173H46.655C47.0401 59.2173 47.2049 59.405 47.2049 59.8452V66.1927C47.2049 66.6062 47.0292 66.8079 46.669 66.8079H45.5078V67.72H50.4636V66.8079H49.2884C48.9275 66.8079 48.7525 66.6062 48.7525 66.1927V63.4084H53.5806V66.1927C53.5806 66.6062 53.4049 66.8079 53.0453 66.8079H51.872V67.72H56.8253V66.8079H55.6654C55.3051 66.8079 55.1301 66.6062 55.1301 66.1927V59.8452C55.1301 59.405 55.2949 59.2173 55.6807 59.2173H56.8253V58.3052H51.872V59.2173Z" fill="#4F4E51"/>
<path d="M62.4682 67.0594C59.9134 67.0594 59.0019 64.9728 59.0019 63.0199C59.0019 61.0601 59.9134 58.9684 62.4682 58.9684C65.0231 58.9684 65.9333 61.0601 65.9333 63.0199C65.9333 64.9734 65.0231 67.0594 62.4682 67.0594ZM62.4682 58.0259C58.9253 58.0259 57.3125 60.6142 57.3125 63.0193C57.3125 65.4174 58.9253 67.9994 62.4682 67.9994C66.0093 67.9994 67.6227 65.4167 67.6227 63.0193C67.6227 60.6136 66.0093 58.0259 62.4682 58.0259Z" fill="#4F4E51"/>
<path d="M83.0122 62.1763C81.554 61.9124 80.2938 61.6847 80.2938 60.571C80.2938 59.5207 81.013 58.9676 82.3716 58.9676C83.7627 58.9676 85.2477 59.8657 85.431 61.8725L85.4387 61.9581H86.3489V58.2357H85.5498L85.1743 59.0082C84.4027 58.3289 83.4976 58.0258 82.2604 58.0258C79.7701 58.0258 78.8867 59.4788 78.8867 60.7251C78.8867 62.9608 80.875 63.3204 82.6296 63.6388C84.1319 63.9103 85.431 64.1469 85.431 65.3995C85.431 66.9394 83.6458 67.0587 83.0991 67.0587C81.4097 67.0587 79.9936 65.683 79.8033 63.8576L79.7943 63.7739H78.8867V67.79H79.7733L80.1507 66.8468C80.9555 67.6117 81.9289 67.9993 83.0467 67.9993C85.4221 67.9993 86.84 66.9122 86.84 65.0919C86.84 62.8695 84.807 62.4997 83.0128 62.1756L83.0122 62.1763Z" fill="#4F4E51"/>
<path d="M93.3001 59.2172C95.2731 59.2172 95.4079 60.1806 95.4768 61.8836L95.4807 61.9724H96.3953V58.3052H87.2642V59.2172H88.3398C88.7205 59.2172 88.8904 59.41 88.8904 59.8451V66.1926C88.8904 66.6062 88.7153 66.8079 88.3545 66.8079H87.2227V67.7199H96.396V63.7895H95.4807L95.4775 63.8808C95.4085 65.859 95.2865 66.8079 93.3007 66.8079H90.4386V63.2834H91.5066C92.524 63.2834 92.6601 63.4958 92.715 65.1798L92.7182 65.2711H93.6348V60.5479H92.7182L92.715 60.6379C92.6594 62.1601 92.5125 62.3701 91.5066 62.3701H90.4386V59.2179H93.3007L93.3001 59.2172Z" fill="#4F4E51"/>
<path d="M73.9194 59.2165H75.0665C75.4523 59.2165 75.6164 59.4043 75.6164 59.8444V64.2157C75.6164 65.8723 75.2102 66.9765 73.2302 66.9765C71.6672 66.9765 70.971 66.251 70.971 64.619V58.3039H67.7812V59.2159H68.8716C69.2561 59.2159 69.4215 59.4036 69.4215 59.8438V64.9254C69.4215 66.8782 70.6612 67.9983 72.824 67.9983C75.6516 67.9983 76.7035 66.9366 76.7035 64.0761V59.8432C76.7035 59.403 76.8677 59.2153 77.2535 59.2153H78.3553V58.3032H73.9194V59.2153V59.2165Z" fill="#4F4E51"/>
</g>
<defs>
<clipPath id="clip0">
<rect width="96.3956" height="68" fill="white"/>
</clipPath>
</defs>
</svg>
