<svg width="107" height="48" viewBox="0 0 107 48" fill="none" xmlns="http://www.w3.org/2000/svg">
<g clip-path="url(#clip0)">
<path d="M20.6446 42.7694L20.1531 43.877L19.6616 44.9232C19.5387 45.2309 19.4158 45.354 19.1086 45.354H18.4943C18.1871 45.354 18.1256 45.2309 17.9413 44.9232L17.5113 44.0617L16.9583 42.8924H16.8969V45.9694C16.8969 46.154 16.8355 46.154 16.7126 46.154H15.361C15.2381 46.154 15.1152 46.154 15.1152 45.9694V40.2463C15.1152 39.6309 15.2995 39.5078 15.791 39.5078H16.5897C17.0198 39.5078 17.1427 39.6309 17.2655 40.0001L18.0028 41.6001L18.74 43.1386H18.8014L19.5387 41.6001L20.2759 40.0001C20.4602 39.6924 20.5831 39.5078 21.0746 39.5078H21.689C22.119 39.5078 22.3648 39.6309 22.3648 40.1847V46.0309C22.3648 46.2155 22.3034 46.2155 22.119 46.2155H20.8903C20.7674 46.2155 20.706 46.2155 20.706 46.0309L20.6446 42.7694Z" fill="#012639"/>
<path d="M27.8314 43.754L26.5413 45.7232C26.2955 46.0924 26.1726 46.154 25.7426 46.154H25.3125C24.7596 46.154 24.6367 45.8463 24.6367 45.4155V39.6924C24.6367 39.5694 24.6982 39.5078 24.8825 39.5078H26.1726C26.4184 39.5078 26.4184 39.5694 26.4184 39.6924V43.3232H26.4798L27.3399 42.0309L28.6301 39.9386C28.8759 39.5078 28.9987 39.5078 29.4288 39.5078H29.8588C30.4118 39.5078 30.5347 39.6309 30.5347 40.2463V45.9693C30.5347 46.0924 30.4732 46.154 30.2889 46.154H28.9987C28.753 46.154 28.753 46.0924 28.753 45.9693V42.3386H28.6915L27.8314 43.754Z" fill="#012639"/>
<path d="M34.2224 46.154H32.8707C32.7479 46.154 32.625 46.0924 32.625 45.9693V40.1232C32.625 39.754 32.7479 39.5078 33.2394 39.5078H35.6354C37.1099 39.5078 37.97 40.4309 37.97 41.6617C37.97 42.277 37.7857 43.9386 35.3282 43.9386H34.4067V46.0309C34.4067 46.0924 34.4067 46.154 34.2224 46.154ZM35.4511 40.9847H34.4067V42.4001H35.4511C35.8812 42.4001 36.1269 42.0309 36.1269 41.6617C36.1269 41.477 36.004 40.9847 35.4511 40.9847Z" fill="#012639"/>
<path d="M44.2362 47.5078C44.2362 47.6309 44.1133 47.754 43.9905 47.754H43.0075C42.8232 47.754 42.8232 47.6924 42.8232 47.5694L42.7617 45.2309C42.7617 45.0463 42.7617 44.8001 43.1303 44.7386L43.499 44.6771C44.1133 44.1847 44.1748 43.3232 44.2362 43.0155L44.5434 40.2463C44.6048 39.8155 44.7277 39.5078 45.3421 39.5078H48.7211C49.274 39.5078 49.3355 39.6924 49.3355 40.1232V44.6155L49.7655 44.6771C50.0727 44.6771 50.1341 44.8617 50.1341 45.1078L50.0113 47.5078C50.0113 47.6309 49.9498 47.6924 49.827 47.6924H48.844C48.6597 47.6924 48.5982 47.6309 48.5982 47.4463L48.5368 46.0924H44.4205L44.2362 47.5078ZM45.4649 44.6155H47.4309V40.9847H46.0793L45.895 42.7078C45.7721 43.5694 45.7107 44.1847 45.4649 44.6155Z" fill="#012639"/>
<path d="M56.6436 46.154H53.6947C52.1587 46.154 51.8516 45.1694 51.8516 44.3694V41.2924C51.8516 40.3694 52.3431 39.5078 53.6947 39.5078H56.5208C56.6436 39.5078 56.7051 39.5078 56.7051 39.754V40.8617C56.7051 41.0463 56.6436 41.0463 56.5208 41.0463H54.2476C53.7561 41.0463 53.6947 41.354 53.6947 41.6001V42.0309H56.275C56.3979 42.0309 56.4593 42.0309 56.4593 42.277V43.2617C56.4593 43.3847 56.3979 43.5078 56.275 43.5078H53.6947V44.2463C53.6947 44.7386 53.9404 44.8001 54.2476 44.8001H56.6436C56.7665 44.8001 56.8279 44.8001 56.8279 45.0463V46.154C56.8279 46.0309 56.7665 46.154 56.6436 46.154Z" fill="#012639"/>
<path d="M63.1547 40.9847H61.4959V45.9694C61.4959 46.0924 61.4959 46.154 61.2501 46.154H59.8985C59.7756 46.154 59.6528 46.0924 59.6528 45.9694V40.9847H58.0554C57.9325 40.9847 57.8711 40.9232 57.8711 40.7386V39.6924C57.8711 39.4463 57.9325 39.4463 58.0554 39.4463H63.0932C63.2161 39.4463 63.2775 39.4463 63.2775 39.6924V40.7386C63.4004 40.8617 63.2775 40.9847 63.1547 40.9847Z" fill="#012639"/>
<path d="M69.176 44.3077C69.3603 44.2462 69.4217 44.2462 69.4831 44.4308L69.9132 45.2923C69.9746 45.477 69.9746 45.6 69.8518 45.6616C69.1145 46.0923 68.3158 46.2769 67.5172 46.2769C65.244 46.2769 64.4453 44.8 64.4453 42.8308C64.4453 40.8 65.7355 39.3846 67.5786 39.3846C68.3158 39.3846 68.9302 39.5077 69.5446 39.8154C69.7289 39.9385 69.7289 39.9385 69.6674 40.2462L69.3603 41.0462C69.2988 41.2923 69.2374 41.2923 68.9916 41.2308C68.5001 41.1077 68.193 40.9846 67.7629 40.9846C66.9642 40.9846 66.4113 41.6 66.4113 42.8308C66.4113 44 66.7799 44.677 67.7629 44.677C68.3158 44.6154 68.7459 44.4308 69.176 44.3077Z" fill="#012639"/>
<path d="M76.3656 40.9847H74.7068V45.9693C74.7068 46.0924 74.7068 46.1539 74.4611 46.1539H73.1094C72.9866 46.1539 72.8637 46.0924 72.8637 45.9693V40.9847H71.2663C71.1435 40.9847 71.082 40.9231 71.082 40.7385V39.6924C71.082 39.4462 71.1435 39.4462 71.2663 39.4462H76.3042C76.427 39.4462 76.4885 39.4462 76.4885 39.6924V40.7385C76.5499 40.8616 76.4885 40.9847 76.3656 40.9847Z" fill="#012639"/>
<path d="M83.4924 44.0617C83.4924 45.2924 82.5094 46.0924 81.1578 46.0924H78.7003C78.1474 46.0924 78.0859 45.9078 78.0859 45.477V40.0617C78.0859 39.6309 78.2088 39.4463 78.7003 39.4463H81.1578C82.2636 39.4463 83.1852 39.9386 83.1852 41.1694C83.1852 41.6617 82.878 42.154 82.5094 42.4001V42.4617C83.2466 42.7694 83.4924 43.4463 83.4924 44.0617ZM80.8506 41.9078C81.0963 41.9078 81.3421 41.7847 81.3421 41.4155C81.3421 41.1078 81.1578 40.9848 80.8506 40.9848H79.8676V41.9078H80.8506ZM80.9735 43.3232H79.8676V44.554H80.9735C81.465 44.554 81.6493 44.1847 81.6493 43.9386C81.6493 43.5694 81.4035 43.3232 80.9735 43.3232Z" fill="#012639"/>
<path d="M86.994 44.7999L86.6869 45.9076C86.6254 46.0307 86.6254 46.0922 86.3797 46.0922H84.9666C84.8437 46.0922 84.8438 46.0307 84.8438 45.9076L86.7483 39.9999C86.9326 39.5076 87.1169 39.3845 87.547 39.3845H88.3456C88.7757 39.3845 89.0214 39.3845 89.2058 39.9999L91.1103 45.9076C91.1103 45.9691 91.1103 46.0922 90.9874 46.0922H89.5744C89.4515 46.0922 89.3286 46.0922 89.2672 45.9076L88.96 44.7384H86.994V44.7999ZM88.4685 43.3845L88.2842 42.6461L87.977 41.2922H87.9156L87.6084 42.7076L87.4241 43.4461H88.4685V43.3845Z" fill="#012639"/>
<path d="M13.4533 15.3231C14.8049 15.7538 15.9107 16.2461 16.648 16.9231C17.9996 18.1538 18.6754 19.6923 18.6754 21.6C18.6754 23.0769 18.3068 24.3692 17.631 25.6C16.9552 26.7692 16.0336 27.7538 14.8049 28.4308C13.6376 29.1077 12.286 29.4769 10.8115 29.4769H3.25474C2.14888 29.4769 1.22733 29.1692 0.612959 28.5538C-0.00140962 27.9384 -0.308594 27.0769 -0.308594 25.9077V7.56922C-0.308594 6.46153 -0.00140962 5.59999 0.612959 4.9846C1.22733 4.36922 2.08744 4.06152 3.25474 4.06152H9.0298C11.303 4.06152 13.0232 4.61537 14.3134 5.66152C14.9892 6.21537 15.4807 6.89229 15.8493 7.69229C16.2179 8.49229 16.4022 9.29229 16.4022 10.1538C16.4022 11.4461 16.1565 12.4923 15.7264 13.3538C15.2964 13.9692 14.4977 14.7077 13.4533 15.3231ZM5.58934 13.6615H8.53831C9.27555 13.6615 9.82848 13.4154 10.32 12.9846C10.8115 12.5538 11.0572 11.9384 11.0572 11.2615C11.0572 10.5846 10.8115 10.0308 10.2585 9.66152C9.70561 9.29229 9.09124 9.10768 8.354 9.10768H5.71221V13.6615H5.58934ZM5.58934 24.3077H9.64417C10.75 24.3077 11.6102 24 12.1016 23.4461C12.4703 23.0154 12.716 22.3384 12.716 21.4154C12.5931 19.6923 11.5487 18.8308 9.5213 18.8308H5.65078V24.3077H5.58934Z" fill="#002238"/>
<path d="M34.4049 27.6308C33.6062 28.3693 32.8075 28.9231 32.0703 29.2308C31.2716 29.5385 30.3501 29.7231 29.3056 29.7231C27.3397 29.7231 25.6809 29.1693 24.3907 28.0616C23.592 27.3847 23.1005 26.5847 22.7933 25.7847C22.4862 24.9231 22.3633 23.877 22.3633 22.7077V12.9231C22.3633 12.0001 22.609 11.2616 23.1005 10.7077C23.592 10.0924 24.2678 9.78467 25.1894 9.78467C26.0495 9.78467 26.7253 10.0924 27.2168 10.7077C27.7083 11.3231 27.954 12.0616 27.954 12.9231V21.4154C27.954 22.4001 28.2612 23.2616 28.8141 23.9385C29.3671 24.6154 30.1658 24.9847 31.2102 24.9847C31.7631 24.9847 32.316 24.8001 32.7461 24.4924C33.1762 24.1847 33.6062 23.7539 33.852 23.2616C34.0977 22.7693 34.282 22.2154 34.282 21.6616V12.9231C34.282 12.0001 34.5278 11.2616 35.0193 10.7077C35.5108 10.0924 36.1866 9.78467 37.1081 9.78467C37.9682 9.78467 38.644 10.0924 39.1355 10.7077C39.627 11.3231 39.8728 12.0616 39.8728 12.9231V26.3385C39.8728 27.2001 39.627 28.0001 39.197 28.6154C38.7055 29.2308 38.0911 29.6001 37.1696 29.6001C35.8794 29.5385 34.9578 28.9231 34.4049 27.6308Z" fill="#002238"/>
<path d="M49.8876 21.4769V26.523C49.8876 27.3846 49.6419 28.123 49.1504 28.7384C48.6589 29.3538 47.9831 29.6615 47.0615 29.6615C46.2014 29.6615 45.5256 29.3538 45.0341 28.7384C44.5426 28.123 44.2969 27.3846 44.2969 26.523V12.8615C44.2969 12.3077 44.4197 11.8153 44.6041 11.323C44.8498 10.8307 45.157 10.4615 45.587 10.2153C46.0171 9.96919 46.5086 9.78458 47.0615 9.78458C47.9216 9.78458 48.5975 10.0923 49.0889 10.6461C49.5804 11.2615 49.8262 11.9384 49.8262 12.8615V17.3538H56.1542V12.8615C56.1542 12 56.3999 11.2615 56.8914 10.6461C57.3829 10.0307 58.0587 9.78458 58.9188 9.78458C59.4718 9.78458 59.9633 9.90765 60.3933 10.2153C60.8234 10.4615 61.1306 10.8923 61.3763 11.323C61.6221 11.8153 61.6835 12.3077 61.6835 12.8615V26.523C61.6835 27.3846 61.4377 28.123 60.9462 28.7384C60.4548 29.3538 59.7789 29.6615 58.9188 29.6615C58.0587 29.6615 57.3215 29.3538 56.83 28.7384C56.3385 28.123 56.0927 27.3846 56.0927 26.523V21.4769H49.8876Z" fill="#002238"/>
<path d="M101.061 27.6308C100.262 28.3693 99.4638 28.9231 98.7266 29.2308C97.9279 29.5385 97.0063 29.7231 95.9619 29.7231C93.9959 29.7231 92.3371 29.1693 91.047 28.0616C90.2483 27.3847 89.7568 26.5847 89.4496 25.7847C89.1424 24.9231 89.0195 23.877 89.0195 22.7077V12.9231C89.0195 12.0001 89.2653 11.2616 89.7568 10.7077C90.2483 10.0924 90.9241 9.78467 91.8456 9.78467C92.7057 9.78467 93.3816 10.0924 93.8731 10.7077C94.3645 11.3231 94.6103 12.0616 94.6103 12.9231V21.4154C94.6103 22.4001 94.9175 23.2616 95.4704 23.9385C96.0233 24.6154 96.822 24.9847 97.8664 24.9847C98.4194 24.9847 98.9723 24.8001 99.4024 24.4924C99.8939 24.1847 100.262 23.7539 100.508 23.2616C100.754 22.7693 100.938 22.2154 100.938 21.6616V12.9231C100.938 12.0001 101.184 11.2616 101.676 10.7077C102.167 10.0924 102.843 9.78467 103.764 9.78467C104.625 9.78467 105.3 10.0924 105.792 10.7077C106.283 11.3231 106.529 12.0616 106.529 12.9231V26.3385C106.529 27.2001 106.283 28.0001 105.853 28.6154C105.362 29.2308 104.747 29.6001 103.826 29.6001C102.536 29.5385 101.614 28.9231 101.061 27.6308Z" fill="#002238"/>
<path d="M83.0017 21.2923L82.756 22.7077C84.0461 23.3846 84.9677 24.6769 84.9677 26.2769C84.9677 28.4308 83.186 30.2154 81.0357 30.2154C80.0527 30.2154 79.1312 29.8462 78.3939 29.2308L78.3325 29.1692C77.5953 28.4308 76.5508 28 75.445 28C74.3391 28 73.2947 28.4308 72.5575 29.1692L72.496 29.2308C71.8202 29.8462 70.8987 30.2154 69.8542 30.2154C67.7039 30.2154 65.9223 28.4308 65.9223 26.2769C65.9223 24.7385 66.8438 23.3846 68.134 22.7077L67.8882 21.2923C66.2295 21.1692 64.8778 19.7539 64.8164 18.0923C64.8164 16.9231 65.3693 15.8769 66.2909 15.2616C66.4138 15.2 68.6255 13.7846 70.53 13.1077C69.8542 12.1846 69.4242 11.0154 69.4242 9.72309C69.4242 9.16925 69.4856 8.6154 69.6699 8.12309C68.9327 7.69232 68.4412 6.89232 68.4412 5.90771C68.4412 4.49232 69.6085 3.32309 71.0215 3.32309C71.8202 3.32309 72.5574 3.69232 73.0489 4.30771C73.7247 4.00001 74.462 3.87694 75.2607 3.87694C76.0593 3.87694 76.7966 4.06155 77.4724 4.30771C77.9639 3.69232 78.7011 3.26155 79.4998 3.26155C80.9129 3.26155 82.0802 4.43078 82.0802 5.84617C82.0802 6.76925 81.5887 7.56924 80.8514 8.06155C80.9743 8.55386 81.0972 9.10771 81.0972 9.66155C81.0972 10.8308 80.7285 12 80.1142 12.9231C82.0187 13.6 84.5991 15.1385 84.6605 15.2C85.5821 15.8154 86.1964 16.8616 86.135 18.0308C86.0121 19.7539 84.6605 21.1692 83.0017 21.2923ZM75.1992 3.32309C75.9365 3.32309 76.6737 3.44617 77.3495 3.75386L78.3939 0.553861L76.3665 1.66155L75.1992 -0.307678L74.0319 1.66155L72.0045 0.553861L72.9875 3.75386C73.6633 3.44617 74.4005 3.32309 75.1992 3.32309Z" fill="#D0AD67"/>
<path d="M79.4392 20.9848C79.4392 17.9078 77.5347 15.4463 75.2001 15.4463C72.8655 15.4463 70.9609 17.9078 70.9609 20.9848C70.9609 24.0617 72.8655 26.5232 75.2001 26.5232C77.5347 26.5232 79.4392 24.0617 79.4392 20.9848Z" fill="white"/>
<path d="M75.1986 8.49219C73.847 8.49219 72.6797 9.59988 72.6797 11.0153C72.6797 12.3691 73.7855 13.5383 75.1986 13.5383C76.6116 13.5383 77.7175 12.4306 77.7175 11.0153C77.7175 9.59988 76.6116 8.49219 75.1986 8.49219ZM76.5502 11.9999C76.3659 12.1845 76.1816 12.246 75.9358 12.246C75.6287 12.246 75.3829 12.0614 75.1986 11.8768C75.0143 12.123 74.7685 12.246 74.4613 12.246C74.2156 12.246 74.0313 12.1845 73.847 11.9999C73.7855 11.9383 73.7855 11.8153 73.847 11.7537C73.9084 11.6922 74.0313 11.6922 74.0927 11.7537C74.2156 11.8768 74.3385 11.9383 74.5228 11.9383C74.83 11.9383 75.1372 11.6922 75.1372 11.323V11.0768C74.7685 10.8922 74.0927 10.2768 74.0927 9.78449C74.0927 9.4768 74.3999 9.29218 74.83 9.29218C75.0757 9.29218 75.3215 9.4768 75.3215 9.4768C75.3215 9.4768 75.5672 9.29218 75.813 9.29218C76.243 9.29218 76.5502 9.4768 76.5502 9.78449C76.5502 10.2768 75.8744 10.8922 75.5058 11.0768V11.323C75.5058 11.6306 75.7515 11.9383 76.1201 11.9383C76.243 11.9383 76.4273 11.8768 76.5502 11.7537C76.6116 11.6922 76.7345 11.6922 76.7959 11.7537C76.6116 11.8153 76.6116 11.9383 76.5502 11.9999Z" fill="white"/>
<path d="M78.1466 8.12329C77.8394 8.12329 77.5936 8.30791 77.4708 8.55406C77.4093 8.6156 77.4708 8.73868 77.5322 8.80022C77.5936 8.86176 77.7165 8.80021 77.7779 8.73868C77.8394 8.6156 77.9622 8.49253 78.1466 8.49253C78.3309 8.49253 78.4537 8.6156 78.5152 8.73868C78.5152 8.80021 78.5766 8.86176 78.6995 8.86176H78.7609C78.8224 8.86176 78.8838 8.73868 78.8838 8.67714C78.6995 8.30791 78.4537 8.12329 78.1466 8.12329Z" fill="white"/>
<path d="M72.4317 8.12329C72.1245 8.12329 71.8788 8.30791 71.7559 8.55406C71.6945 8.6156 71.7559 8.73868 71.8173 8.80022C71.8788 8.86176 72.0017 8.80021 72.0631 8.73868C72.1245 8.6156 72.2474 8.49253 72.4317 8.49253C72.616 8.49253 72.7389 8.6156 72.8003 8.73868C72.8003 8.80021 72.8618 8.86176 72.9846 8.86176H73.0461C73.1075 8.86176 73.169 8.73868 73.169 8.67714C72.9846 8.30791 72.7389 8.12329 72.4317 8.12329Z" fill="white"/>
</g>
<defs>
<clipPath id="clip0">
<rect width="106.286" height="48" fill="white"/>
</clipPath>
</defs>
</svg>
