<svg width="52" height="52" viewBox="0 0 52 52" fill="none" xmlns="http://www.w3.org/2000/svg">
<g clip-path="url(#clip0)">
<path d="M9.78016 9.20505C9.22045 9.74323 8.32922 9.72601 7.79104 9.1663C7.25286 8.60659 7.27008 7.71536 7.82979 7.17718C10.2236 4.87807 13.0179 3.0827 16.0403 1.86426C19.067 0.645817 22.3219 0 25.6371 0C28.9566 0 32.2115 0.645817 35.2426 1.86856C38.2693 3.08701 41.0635 4.88668 43.4617 7.1901C44.0214 7.72828 44.0386 8.61951 43.5004 9.17922C42.9622 9.73892 42.071 9.75615 41.5113 9.21796C39.3801 7.16427 36.8916 5.56694 34.1964 4.48197C31.5054 3.397 28.6036 2.82437 25.6371 2.82437C22.675 2.82437 19.7731 3.397 17.0865 4.47767C14.3956 5.56264 11.907 7.15996 9.77585 9.20505H9.78016Z" fill="#407AB9"/>
<path d="M7.82979 44.3633C7.27008 43.8251 7.25286 42.9339 7.79104 42.3742C8.32922 41.8145 9.22045 41.7973 9.78016 42.3355C11.9114 44.3848 14.3956 45.9822 17.0908 47.0628C19.7774 48.1435 22.6793 48.7161 25.6414 48.7161C28.6165 48.7161 31.5313 48.1392 34.2351 47.0413C36.9432 45.9434 39.4404 44.3289 41.5716 42.2623C42.127 41.7198 43.0182 41.7327 43.5607 42.2881C44.1032 42.8435 44.0903 43.7347 43.5349 44.2772C41.1324 46.6065 38.3296 48.4191 35.2942 49.6504C32.2546 50.8818 28.9781 51.5319 25.6414 51.5319C22.3262 51.5319 19.0713 50.8904 16.0446 49.6676C13.0179 48.4492 10.2279 46.6538 7.83409 44.3547L7.82979 44.3633Z" fill="#407AB9"/>
<path d="M34.8143 28.9417C33.5512 28.1941 31.3445 26.3661 29.2884 28.3227C28.8031 28.8166 28.4819 29.1473 28.2742 29.3596C26.4064 28.4749 23.0853 25.2682 22.2242 23.2447C25.2756 20.4709 23.8631 19.4816 20.8621 13.7819C20.3493 12.8971 19.518 12.3101 18.5035 12.3101C17.261 12.3101 16.7753 12.9223 15.0003 14.7185C12.7779 16.967 11.4736 17.6732 12.3095 21.4831C14.6885 32.3281 30.5647 43.1895 35.0608 38.3341C38.7331 34.6866 39.4413 34.3409 39.2262 32.6914C38.9552 31.0489 37.695 30.6463 34.8143 28.9417ZM32.8478 36.2791C32.591 36.5642 31.0535 36.6582 28.5031 35.5996C23.6669 33.5926 18.6502 28.3259 16.5945 24.3941C15.9397 23.1417 14.4919 19.4281 15.2957 18.7038C15.6244 18.392 17.8347 16.1349 18.4001 15.5879C19.9054 18.4411 20.6383 19.7749 20.8817 20.3184C20.4488 20.9868 19.0643 21.5102 19.0643 23.1499C19.6734 26.3535 23.8411 30.2794 26.3321 31.7402C28.8747 33.2313 29.6883 32.2345 30.6143 31.2852C31.4412 30.4382 31.3704 30.4898 31.4566 30.4811L36.0049 33.1542C35.4717 33.7118 33.2158 35.8922 32.8478 36.2791Z" fill="#407AB9"/>
</g>
<defs>
<clipPath id="clip0">
<rect width="51.54" height="51.54" fill="white"/>
</clipPath>
</defs>
</svg>
