<svg width="126" height="48" viewBox="0 0 126 48" fill="none" xmlns="http://www.w3.org/2000/svg">
<g clip-path="url(#clip0)">
<path d="M32.4688 38.7108H34.4211V42.0278H38.0322V38.7108H39.9845V47.1503H38.0322V43.6927H34.4211V47.1503H32.4688V38.7108ZM88.7018 38.7108H93.7547L93.2572 40.3631H90.6546V42.0658H93.2958V43.7181H90.6546V45.4981H93.7299V47.1502H88.7018V38.7107V38.7108ZM76.7843 45.0114C77.3455 45.3959 77.9837 45.652 78.7236 45.652C79.2977 45.652 79.9233 45.4602 79.9233 44.9092C79.9233 43.5134 76.3503 43.6923 76.3503 41.0928C76.3503 39.799 77.384 38.6212 79.2469 38.6212C80.178 38.6212 80.957 38.8258 81.4671 39.0823V40.8364C80.6887 40.4527 79.9996 40.2472 79.3106 40.2472C78.8389 40.2472 78.4304 40.414 78.4304 40.9261C78.4304 42.2327 82.0033 42.0277 82.0033 44.7426C82.0033 46.3052 80.5994 47.2785 78.8003 47.2785C77.8049 47.2785 76.7716 47.0096 76.0441 46.4845L76.7845 45.0114H76.7843ZM62.404 45.7547C62.1361 45.2808 61.9954 44.653 61.9954 43.9232V38.7107H63.9483V43.8078C63.9483 44.2433 64.0373 44.6275 64.2033 44.9093C64.4969 45.3961 65.0322 45.6516 65.7345 45.6516C66.4362 45.6516 66.9723 45.3959 67.2656 44.9093C67.4317 44.6275 67.5212 44.2433 67.5212 43.8078V38.7107H69.4728V43.9232C69.4728 44.653 69.3329 45.2808 69.065 45.7547C68.4781 46.8043 67.3038 47.2785 65.7345 47.2785C64.1648 47.2785 62.9909 46.8043 62.404 45.7547ZM53.2806 42.9496C53.2806 41.1568 52.3492 40.2474 51.0218 40.2474C49.695 40.2474 48.7631 41.1568 48.7631 42.9496C48.7631 44.7424 49.695 45.6518 51.0218 45.6518C52.3492 45.6518 53.2806 44.7424 53.2806 42.9496ZM46.6836 42.9496C46.6836 40.3886 48.4571 38.621 51.0218 38.621C53.5867 38.621 55.3606 40.3887 55.3606 42.9496C55.3606 45.5113 53.5867 47.2788 51.0218 47.2788C48.4571 47.2788 46.6836 45.5113 46.6836 42.9496Z" fill="#5E2F26"/>
<path d="M113.339 21.9399C114.701 22.8715 116.249 23.4932 118.045 23.4932C119.438 23.4932 120.954 23.0268 120.954 21.6913C120.954 18.305 112.287 18.7396 112.287 12.4322C112.287 9.29447 114.794 6.43631 119.314 6.43631C121.573 6.43631 123.462 6.93357 124.7 7.55478V11.8114C122.812 10.879 121.14 10.382 119.468 10.382C118.323 10.382 117.333 10.786 117.333 12.0283C117.333 15.1977 126 14.7008 126 21.2875C126 25.0782 122.595 27.4389 118.23 27.4389C115.816 27.4389 113.308 26.7866 111.544 25.5123L113.339 21.9399ZM18.9757 25.7302C16.7776 26.8177 13.9299 27.439 11.0817 27.439C3.96214 27.439 0 23.0893 0 17.3109C0 11.1278 4.58097 6.43642 11.6698 6.43642C14.0844 6.43642 16.0348 6.80906 17.8304 7.39934V11.7802C16.1277 10.9726 14.2702 10.3822 12.0414 10.3822C7.39801 10.3822 5.04538 13.1161 5.04538 17.0614C5.04538 20.8833 7.27417 23.4932 11.3294 23.4932C12.4746 23.4932 13.5274 23.338 14.2392 23.058V16.9997H18.9757V25.7302ZM74.7712 16.9376C74.7712 12.5876 72.5113 10.3819 69.2919 10.3819C66.0726 10.3819 63.8125 12.5876 63.8125 16.9376C63.8125 21.2874 66.0725 23.4931 69.2919 23.4931C72.5112 23.4931 74.7712 21.2874 74.7712 16.9376ZM58.7672 16.9376C58.7672 10.7236 63.0703 6.43619 69.2919 6.43619C75.5145 6.43619 79.817 10.7236 79.817 16.9376C79.817 23.1514 75.5146 27.4387 69.2919 27.4387C63.0702 27.4387 58.7672 23.1513 58.7672 16.9376ZM93.7771 23.12C98.5127 23.12 100.463 20.2306 100.463 16.8756C100.463 12.8985 98.0795 10.6619 93.6833 10.6619H91.5165V23.12H93.7771ZM86.7807 6.6535H94.1487C101.299 6.6535 105.509 10.5063 105.509 16.7203C105.509 23.1827 100.556 27.1279 93.6529 27.1279H86.7808V6.65339L86.7807 6.6535Z" fill="#5E2F26"/>
<path d="M34.3693 25.7547C31.3376 24.1914 29.362 21.1351 29.1838 17.7075C29.1699 17.6403 29.1628 17.5705 29.1628 17.4992V15.8951C25.9052 15.4135 24.0498 14.1678 23.9459 14.0965C23.6691 13.9066 23.5025 13.5925 23.5 13.2558C23.4975 12.9195 23.66 12.6029 23.934 12.4095C23.9787 12.3774 24.3577 12.1172 25.9885 11.1762C25.783 10.9576 25.6806 10.6566 25.7162 10.352C25.7588 9.98474 25.9947 9.66905 26.3339 9.52532C26.3646 9.51212 29.5799 8.11369 31.6513 5.35983C31.8191 5.13676 31.9769 4.89789 32.1443 4.64513L32.1846 4.58418C32.6369 3.90133 33.3231 3.41637 34.1171 3.21916C35.5958 2.85194 37.1109 3.54562 37.8033 4.90534C37.8693 5.0346 38.0174 5.15855 38.2097 5.24536L38.5794 5.41209C38.9059 5.55986 39.1322 5.86782 39.1753 6.22431C39.2188 6.58125 39.0732 6.93482 38.7914 7.15664C38.5786 7.32416 38.4658 7.58606 38.4892 7.85778C38.5977 9.09806 38.6663 12.2013 36.9624 14.2196C36.5201 14.7435 35.9969 15.1564 35.397 15.4559V17.4104C35.467 18.4962 36.0742 19.4785 36.9924 20.0301C37.3437 19.5762 37.7243 19.1419 38.1339 18.731C39.5137 17.3466 41.1279 16.2918 42.933 15.5949V12.3342C42.3331 12.0342 41.8099 11.6214 41.3674 11.0971C39.6636 9.07966 39.7317 5.97653 39.8408 4.73567C39.8645 4.46407 39.7516 4.20262 39.5394 4.03555C39.2571 3.81407 39.1112 3.46039 39.1541 3.10356C39.1973 2.74707 39.4231 2.43866 39.7496 2.29089L40.1197 2.12382C40.3125 2.03656 40.4605 1.91261 40.527 1.78302C41.2189 0.423975 42.7356 -0.269938 44.2127 0.0976201C45.0068 0.294381 45.693 0.779342 46.1457 1.46264L46.1826 1.51898C46.3513 1.77297 46.5099 2.01342 46.6782 2.23783C48.75 4.99136 51.9655 6.39036 51.9975 6.40436C52.3355 6.54919 52.5709 6.86539 52.6133 7.23137C52.6482 7.53559 52.5464 7.8361 52.3416 8.05431C53.9721 8.99533 54.3505 9.25551 54.3958 9.28726C54.6698 9.48111 54.8323 9.79763 54.8298 10.134C54.8273 10.4707 54.6607 10.785 54.3844 10.9746C54.2803 11.046 52.4245 12.2913 49.1672 12.773V14.729C49.6822 14.7762 50.1943 14.8521 50.7004 14.9566C51.6881 15.1612 52.4173 16.0183 52.4736 17.0413C52.4763 17.0932 52.4781 17.1429 52.4776 17.1936C52.4519 24.8082 46.2555 31.0057 38.6646 31.0057C31.048 31.0057 24.8516 24.7868 24.8516 17.1421C24.8516 16.5752 25.3094 16.1154 25.8746 16.1154C26.4399 16.1154 26.898 16.5752 26.898 17.1421C26.898 22.0302 29.8712 26.2333 34.098 28.0261C34.1262 27.2591 34.2178 26.4996 34.3697 25.755L34.3693 25.7547ZM35.8601 21.7418C34.4536 20.8602 33.5146 19.3483 33.365 17.6717C33.3555 17.6155 33.3507 17.558 33.3507 17.4992V17.465C33.3462 17.3772 33.3438 17.2888 33.3438 17.2001C33.3438 17.1597 33.3462 17.1201 33.3507 17.0812V16.0153L33.2467 16.0242C32.7321 16.0646 32.2357 16.0831 31.7599 16.0831C31.5732 16.0831 31.3897 16.08 31.209 16.0746V17.0714C31.2144 17.1136 31.217 17.1566 31.217 17.2002C31.217 19.9159 32.6525 22.3853 34.945 23.7301C35.1971 23.0451 35.503 22.3801 35.8601 21.7418ZM36.1354 28.677C36.7966 28.823 37.4782 28.9128 38.1758 28.9415C37.9333 26.1831 38.9245 23.4163 40.8832 21.4497C43.3375 18.9873 46.9719 18.0954 50.2669 19.1083C50.3723 18.4817 50.429 17.8386 50.4313 17.183C50.4255 17.0623 50.3653 16.9842 50.2868 16.9677C49.3434 16.7727 48.3739 16.6943 47.4079 16.7347C46.1466 16.787 44.9109 17.0402 43.7337 17.4864C42.1702 18.0792 40.7732 18.9861 39.5808 20.1828C37.3353 22.437 36.0982 25.504 36.1355 28.677L36.1354 28.677ZM40.2216 28.8475C40.8979 28.757 41.5567 28.609 42.1923 28.4076C42.1056 26.8852 42.6674 25.4016 43.7441 24.3213C45.0992 22.9607 47.0655 22.4396 48.9087 22.9412C49.2393 22.356 49.5215 21.74 49.7498 21.0986C47.1514 20.2643 44.2694 20.9558 42.3301 22.9022C40.7539 24.4842 39.9952 26.6356 40.2216 28.8475ZM44.2823 27.5133C45.5464 26.82 46.6712 25.9004 47.6018 24.8096C46.7123 24.7851 45.8381 25.1236 45.1906 25.7733C44.7135 26.2522 44.4002 26.8603 44.2823 27.5133ZM44.9792 14.9822C45.6825 14.83 46.3978 14.7329 47.1207 14.6921V12.9523C46.9399 12.9579 46.7565 12.9608 46.5697 12.9608C46.0931 12.9608 45.5977 12.9427 45.0829 12.9023L44.9792 12.8934V14.9819V14.9822ZM41.669 3.55816C41.8451 3.97934 41.9201 4.4433 41.8786 4.91539C41.8115 5.68279 41.6888 8.3013 42.9283 9.76975C43.4792 10.4221 44.2355 10.777 45.2406 10.8553C48.1032 11.0756 50.2956 10.5354 51.6539 10.027C51.3184 9.83197 50.9149 9.59981 50.43 9.32391C49.8599 9.64698 49.2311 9.95548 48.6688 10.1202C47.814 10.3713 46.926 10.4058 46.0306 10.2255C44.0826 9.83224 42.8576 8.36848 42.6697 6.20885C42.6209 5.64373 43.0373 5.14556 43.6 5.09657C44.1619 5.04645 44.6595 5.46548 44.7087 6.03026C44.8539 7.70323 45.7628 8.07701 46.4338 8.21213C47.01 8.32817 47.5532 8.30763 48.0946 8.14913C48.5253 8.0227 49.0695 7.74399 49.5798 7.44518C48.2853 6.66999 46.4614 5.35802 45.0446 3.47428C44.8391 3.20098 44.6553 2.9235 44.4778 2.65472L44.4409 2.59873C44.2727 2.34519 44.0172 2.16446 43.7214 2.09108C43.1706 1.95449 42.6059 2.21255 42.3482 2.7176C42.185 3.03832 41.9548 3.32154 41.669 3.55827L41.669 3.55816ZM26.6754 13.1492C28.0335 13.6572 30.2258 14.1994 33.0887 13.9771C34.0939 13.8988 34.8507 13.5439 35.401 12.892C36.6405 11.4236 36.5176 8.80546 36.4507 8.03772C36.4092 7.56551 36.4843 7.10166 36.6607 6.68003C36.3739 6.44376 36.1443 6.16053 35.9811 5.84027C35.7234 5.33386 35.1587 5.07569 34.6079 5.21285C34.3125 5.28611 34.057 5.46684 33.8884 5.72174L33.8481 5.78179C33.6717 6.04809 33.4893 6.32399 33.2846 6.59638C31.8684 8.47978 30.0445 9.79172 28.7499 10.5665C29.2605 10.8662 29.8053 11.1452 30.2347 11.2712C30.7752 11.4302 31.3186 11.4511 31.8948 11.3339C32.5663 11.1989 33.4752 10.825 33.6208 9.15293C33.6696 8.58725 34.1663 8.16652 34.7286 8.21879C35.2917 8.26812 35.7081 8.76583 35.6593 9.33101C35.4715 11.4906 34.2463 12.9546 32.2984 13.3472C31.4031 13.5287 30.5155 13.4933 29.6603 13.2423C29.0976 13.0775 28.4692 12.7698 27.899 12.4461C27.4142 12.7219 27.0106 12.9546 26.675 13.1492H26.6754Z" fill="#4479BC"/>
</g>
<defs>
<clipPath id="clip0">
<rect width="126" height="48" fill="white"/>
</clipPath>
</defs>
</svg>
