<svg width="57" height="80" viewBox="0 0 57 80" fill="none" xmlns="http://www.w3.org/2000/svg">
<g clip-path="url(#clip0)">
<path d="M48.3502 56.362L47.6942 60.1086C51.1383 61.9005 53.5983 65.3213 53.5983 69.5566C53.5983 75.2579 48.8422 79.9819 43.102 79.9819C40.4779 79.9819 38.0179 79.0046 36.0498 77.3756L35.8858 77.2127C33.9177 75.2579 31.1297 74.1177 28.1776 74.1177C25.2255 74.1177 22.4374 75.2579 20.4693 77.2127L20.3053 77.3756C18.5013 79.0046 16.0412 79.9819 13.2531 79.9819C7.51292 79.9819 2.75678 75.2579 2.75678 69.5566C2.75678 65.4842 5.21684 61.9005 8.66095 60.1086L8.00494 56.362C3.5768 56.0362 -0.0313075 52.2896 -0.195312 47.8914C-0.195312 44.7964 1.28072 42.0272 3.7408 40.3982C4.06881 40.2353 9.97301 36.4887 15.0572 34.6969C13.2531 32.2534 12.1051 29.1584 12.1051 25.7376C12.1051 24.2715 12.2691 22.8055 12.7611 21.5023C10.793 20.362 9.48098 18.2444 9.48098 15.638C9.48098 11.8914 12.5971 8.79641 16.3692 8.79641C18.5013 8.79641 20.4693 9.77378 21.7814 11.4027C23.5854 10.5883 25.5535 10.2625 27.6855 10.2625C29.8176 10.2625 31.7857 10.7512 33.5897 11.4027C34.9018 9.77378 36.8698 8.63352 39.0019 8.63352C42.774 8.63352 45.8901 11.7285 45.8901 15.4751C45.8901 17.9186 44.5781 20.0362 42.61 21.3394C42.938 22.6426 43.266 24.1086 43.266 25.5747C43.266 28.6697 42.282 31.7647 40.6419 34.2082C45.7261 36 52.6143 40.0724 52.7783 40.2353C55.2384 41.8643 56.8784 44.6335 56.7144 47.7285C56.3864 52.2896 52.7783 56.0362 48.3502 56.362ZM27.5215 8.79641C29.4896 8.79641 31.4577 9.1222 33.2617 9.93668L36.0498 1.46609L30.6376 4.39821L27.5215 -0.814453L24.4054 4.39821L18.9933 1.46609L21.6174 9.93668C23.4214 9.1222 25.3895 8.79641 27.5215 8.79641Z" fill="#D0AD67"/>
<path d="M38.8319 55.5478C38.8319 47.403 33.7478 40.8872 27.5156 40.8872C21.2834 40.8872 16.1992 47.403 16.1992 55.5478C16.1992 63.6926 21.2834 70.2085 27.5156 70.2085C33.7478 70.2085 38.8319 63.6926 38.8319 55.5478Z" fill="white"/>
<path d="M27.525 22.4794C23.9169 22.4794 20.8008 25.4115 20.8008 29.1581C20.8008 32.7418 23.7529 35.8368 27.525 35.8368C31.2971 35.8368 34.2492 32.9047 34.2492 29.1581C34.2492 25.4115 31.2971 22.4794 27.525 22.4794ZM31.1331 31.7644C30.6411 32.2531 30.1491 32.416 29.493 32.416C28.673 32.416 28.017 31.9273 27.525 31.4386C27.0329 32.0902 26.3769 32.416 25.5569 32.416C24.9009 32.416 24.4089 32.2531 23.9169 31.7644C23.7529 31.6015 23.7529 31.2757 23.9169 31.1128C24.0809 30.9499 24.4089 30.9499 24.5729 31.1128C24.9009 31.4386 25.2289 31.6015 25.7209 31.6015C26.5409 31.6015 27.361 30.95 27.361 29.9726V29.321C26.3769 28.8323 24.5729 27.2033 24.5729 25.9002C24.5729 25.0857 25.3929 24.597 26.5409 24.597C27.197 24.597 27.853 25.0857 27.853 25.0857C27.853 25.0857 28.509 24.597 29.165 24.597C30.313 24.597 31.1331 25.0857 31.1331 25.9002C31.1331 27.2033 29.329 28.8323 28.345 29.321V29.9726C28.345 30.7871 29.001 31.6015 29.985 31.6015C30.313 31.6015 30.8051 31.4386 31.1331 31.1128C31.2971 30.9499 31.6251 30.9499 31.7891 31.1128C31.2971 31.2757 31.2971 31.6015 31.1331 31.7644Z" fill="white"/>
<path d="M35.3993 21.5028C34.5793 21.5028 33.9233 21.9915 33.5953 22.6431C33.4313 22.806 33.5953 23.1318 33.7593 23.2947C33.9233 23.4576 34.2513 23.2947 34.4153 23.1318C34.5793 22.806 34.9073 22.4802 35.3993 22.4802C35.8913 22.4802 36.2193 22.806 36.3833 23.1318C36.3833 23.2947 36.5474 23.4576 36.8754 23.4576H37.0394C37.2034 23.4576 37.3674 23.1318 37.3674 22.9689C36.8753 21.9915 36.2193 21.5028 35.3993 21.5028Z" fill="white"/>
<path d="M20.1415 21.5028C19.3215 21.5028 18.6655 21.9915 18.3375 22.6431C18.1735 22.806 18.3375 23.1318 18.5015 23.2947C18.6655 23.4576 18.9935 23.2947 19.1575 23.1318C19.3215 22.806 19.6495 22.4802 20.1415 22.4802C20.6335 22.4802 20.9615 22.806 21.1255 23.1318C21.1255 23.2947 21.2895 23.4576 21.6175 23.4576H21.7815C21.9455 23.4576 22.1096 23.1318 22.1096 22.9689C21.6176 21.9915 20.9615 21.5028 20.1415 21.5028Z" fill="white"/>
</g>
<defs>
<clipPath id="clip0">
<rect width="56.9492" height="80" fill="white"/>
</clipPath>
</defs>
</svg>
