<svg width="83" height="80" viewBox="0 0 83 80" fill="none" xmlns="http://www.w3.org/2000/svg">
<g clip-path="url(#clip0)">
<path d="M28.9089 65.6493C21.1473 61.6646 16.0894 53.874 15.6334 45.1368C15.5978 44.9655 15.5794 44.7877 15.5794 44.606V40.5171C7.23955 39.2895 2.48967 36.114 2.2236 35.9324C1.51487 35.4484 1.08846 34.6477 1.0821 33.7893C1.07575 32.9321 1.49157 32.1251 2.19323 31.6321C2.30766 31.5505 3.27798 30.8872 7.45287 28.4884C6.92686 27.9312 6.66456 27.1641 6.75592 26.3877C6.86493 25.4514 7.46888 24.6467 8.33725 24.2804C8.41589 24.2467 16.6475 20.6821 21.9504 13.6624C22.3799 13.0938 22.784 12.4849 23.2125 11.8407L23.3156 11.6853C24.4736 9.94469 26.2303 8.70852 28.2633 8.20582C32.049 7.26977 35.9277 9.03798 37.7004 12.5039C37.8692 12.8334 38.2486 13.1494 38.7409 13.3706L39.6872 13.7957C40.5231 14.1723 41.1025 14.9573 41.2127 15.866C41.3241 16.7759 40.9514 17.6771 40.2299 18.2425C39.6851 18.6696 39.3964 19.3371 39.4562 20.0297C39.734 23.1913 39.9097 31.1015 35.5476 36.2462C34.4151 37.5815 33.0758 38.634 31.5399 39.3975V44.3797C31.7191 47.1472 33.2736 49.6512 35.6244 51.0573C36.5238 49.9001 37.4981 48.7933 38.5466 47.7458C42.0792 44.2168 46.2117 41.5284 50.833 39.7519V31.4401C49.2971 30.6757 47.9576 29.6234 46.8248 28.2869C42.463 23.1444 42.6372 15.2344 42.9165 12.0714C42.9772 11.3791 42.6883 10.7127 42.1449 10.2868C41.4223 9.72226 41.0486 8.82073 41.1586 7.91116C41.2692 7.00245 41.8473 6.21631 42.6832 5.83965L43.6306 5.41377C44.1241 5.19135 44.503 4.87539 44.6732 4.54506C46.4448 1.08084 50.3277 -0.687955 54.1092 0.248958C56.1421 0.750506 57.8989 1.98668 59.058 3.72843L59.1524 3.87203C59.5843 4.51946 59.9904 5.13236 60.4213 5.70441C65.7252 12.7232 73.9575 16.2893 74.0392 16.325C74.9045 16.6941 75.5073 17.5001 75.6158 18.433C75.7051 19.2085 75.4447 19.9745 74.9203 20.5307C79.0945 22.9294 80.0634 23.5926 80.1792 23.6735C80.8807 24.1677 81.2967 24.9745 81.2904 25.8319C81.284 26.6902 80.8576 27.4912 80.15 27.9747C79.8835 28.1566 75.1324 31.3309 66.7933 32.5587V37.5446C68.1118 37.6651 69.4228 37.8585 70.7186 38.1248C73.2471 38.6462 75.1141 40.8312 75.2582 43.4387C75.2652 43.5709 75.2697 43.6978 75.2685 43.8269C75.2026 63.2366 59.3392 79.0342 39.9055 79.0342C20.4058 79.0342 4.54238 63.1822 4.54238 43.6957C4.54238 42.2507 5.71425 41.0787 7.16137 41.0787C8.60849 41.0787 9.78131 42.2507 9.78131 43.6957C9.78131 56.1557 17.3932 66.8693 28.2143 71.4392C28.2864 69.4841 28.5209 67.5481 28.9098 65.6502L28.9089 65.6493ZM32.7254 55.4204C29.1246 53.1731 26.7208 49.3194 26.3377 45.0455C26.3135 44.9025 26.301 44.7559 26.301 44.606V44.5187C26.2897 44.2949 26.2833 44.0695 26.2833 43.8434C26.2833 43.7406 26.2897 43.6397 26.301 43.5404V40.8234L26.0349 40.8462C24.7173 40.9491 23.4465 40.9964 22.2285 40.9964C21.7505 40.9964 21.2808 40.9884 20.8181 40.9747V43.5154C20.832 43.6229 20.8386 43.7326 20.8386 43.8437C20.8386 50.7662 24.5136 57.0606 30.3826 60.4886C31.028 58.7425 31.8111 57.0474 32.7254 55.4204ZM33.4304 73.0982C35.1231 73.4705 36.8681 73.6994 38.654 73.7726C38.0331 66.7413 40.5706 59.6888 45.5852 54.6759C51.8686 48.3992 61.1731 46.1255 69.6088 48.7077C69.8787 47.1102 70.0237 45.4712 70.0296 43.7999C70.0148 43.4924 69.8606 43.2931 69.6597 43.2512C67.2444 42.754 64.7624 42.5542 62.2894 42.6573C59.0604 42.7905 55.8968 43.4359 52.8829 44.5733C48.8801 46.0844 45.3036 48.3961 42.2511 51.4465C36.5022 57.1926 33.335 65.0102 33.4306 73.0985L33.4304 73.0982ZM43.8915 73.5331C45.6228 73.3022 47.3094 72.9251 48.9367 72.4117C48.7149 68.531 50.153 64.7493 52.9095 61.9957C56.3788 58.5274 61.4128 57.1992 66.1316 58.4778C66.9779 56.986 67.7005 55.4159 68.2849 53.7808C61.6327 51.6542 54.2545 53.4168 49.2896 58.3782C45.2543 62.4107 43.3118 67.8947 43.8915 73.5331ZM54.2874 70.1321C57.5238 68.3648 60.4034 66.0208 62.7858 63.2404C60.5084 63.1778 58.2704 64.0406 56.6128 65.6968C55.3912 66.9175 54.5893 68.4677 54.2874 70.1321ZM56.0715 38.19C57.872 37.802 59.7034 37.5545 61.5541 37.4505V33.0159C61.0912 33.03 60.6217 33.0375 60.1435 33.0375C58.9233 33.0375 57.6549 32.9914 56.3371 32.8884L56.0715 32.8658V38.1893V38.19ZM47.5971 9.06993C48.0478 10.1435 48.2399 11.3262 48.1338 12.5296C47.9619 14.4857 47.6478 21.1603 50.821 24.9034C52.2314 26.5662 54.1676 27.4709 56.7409 27.6705C64.0695 28.2321 69.6823 26.8552 73.1598 25.5592C72.3008 25.062 71.2677 24.4702 70.0263 23.7669C68.5667 24.5905 66.9569 25.3768 65.5173 25.7966C63.329 26.4368 61.0556 26.5248 58.7632 26.0651C53.7762 25.0627 50.64 21.3315 50.1589 15.8266C50.0341 14.3861 51.1 13.1163 52.5406 12.9914C53.9792 12.8636 55.253 13.9317 55.379 15.3714C55.7508 19.6358 58.0776 20.5886 59.7955 20.933C61.2706 21.2288 62.6612 21.1764 64.0474 20.7724C65.15 20.4501 66.5432 19.7397 67.8498 18.978C64.5357 17.0021 59.8661 13.6578 56.2391 8.85612C55.7129 8.15949 55.2424 7.45219 54.788 6.76706L54.6934 6.62433C54.2629 5.97805 53.6086 5.51737 52.8514 5.33033C51.4412 4.98215 49.9955 5.63996 49.3358 6.92735C48.9181 7.74485 48.3287 8.46681 47.5969 9.07022L47.5971 9.06993ZM9.2115 33.5178C12.6885 34.8126 18.3009 36.1947 25.6304 35.6281C28.2037 35.4284 30.1413 34.5239 31.5503 32.862C34.7235 29.1192 34.4087 22.4454 34.2375 20.4884C34.1313 19.2848 34.3235 18.1024 34.7751 17.0277C34.0409 16.4254 33.453 15.7034 33.0353 14.8871C32.3755 13.5962 30.9298 12.9381 29.5197 13.2878C28.7634 13.4745 28.1093 13.9352 27.6777 14.5849L27.5746 14.738C27.123 15.4168 26.6558 16.1201 26.1319 16.8144C22.5061 21.6153 17.8368 24.9594 14.5225 26.9342C15.8297 27.6982 17.2243 28.4095 18.3237 28.7307C19.7075 29.1359 21.0986 29.1893 22.5739 28.8905C24.293 28.5462 26.6198 27.5933 26.9925 23.3311C27.1175 21.8892 28.3893 20.8167 29.8286 20.95C31.2703 21.0757 32.3365 22.3444 32.2114 23.7851C31.7306 29.29 28.5939 33.0218 23.6071 34.0225C21.3149 34.4851 19.0425 34.3947 16.8533 33.7549C15.4127 33.3349 13.8039 32.5507 12.344 31.7255C11.1029 32.4286 10.0695 33.0218 9.21056 33.5178H9.2115Z" fill="#4479BC"/>
</g>
<defs>
<clipPath id="clip0">
<rect width="82.7119" height="80" fill="white" transform="translate(0 0.00012207)"/>
</clipPath>
</defs>
</svg>
