<svg width="75" height="80" viewBox="0 0 75 80" fill="none" xmlns="http://www.w3.org/2000/svg">
<g clip-path="url(#clip0)">
<path d="M70.9536 50.8679C67.9222 50.8679 65.4495 51.7852 64.0538 52.4518C64.0589 50.3615 64.0589 49.097 64.0589 48.9846C64.0589 48.5001 64.3121 48.5608 64.3121 48.5608C64.921 48.5001 65.4113 47.8574 65.4113 47.3092C65.4113 46.7719 65.1259 46.6794 64.8195 46.7113C64.5502 46.7361 64.4608 46.7113 64.4608 46.7113H38.5767H35.8045H9.91948C9.91948 46.7113 9.83508 46.7361 9.56681 46.7113C9.25734 46.6794 8.96897 46.7729 8.96897 47.3092C8.96897 47.8574 9.46332 48.5001 10.0712 48.5608C10.0712 48.5608 10.3224 48.5001 10.3224 48.9846C10.3224 49.097 10.3224 50.3615 10.3274 52.4518C8.93179 51.7852 6.45903 50.8679 3.42059 50.8679C-1.35411 50.8679 -0.756267 54.1093 2.035 54.1093C4.81823 54.1093 6.20885 54.757 7.40553 56.2095C8.21137 57.1925 9.64016 57.4362 10.4862 57.4989C11.0911 64.3935 12.9579 71.4294 12.9579 71.4294C12.9579 71.4294 13.6964 73.3436 14.448 74.4718C14.9635 75.2409 16.3209 77.8127 22.3737 78.7917C26.0281 79.3985 27.7925 79.698 37.1881 79.703C46.5818 79.698 48.3492 79.3985 52.0046 78.7917C58.0583 77.8137 59.4128 75.2409 59.9272 74.4718C60.6808 73.3436 61.4183 71.4294 61.4183 71.4294C61.4183 71.4294 63.2892 64.3935 63.885 57.4989C64.7351 57.4362 66.1669 57.1925 66.9677 56.2095C68.1664 54.756 69.564 54.1093 72.3452 54.1093C75.1335 54.1093 75.7323 50.8679 70.9496 50.8679H70.9536Z" fill="#72645B"/>
<path d="M31.3363 29.0271C23.8175 28.457 19.2558 22.2608 19.2558 15.7751C19.2558 8.99584 24.2415 2.48027 32.3551 2.42456H32.4656V0H32.333C21.3779 0.0676529 14.8398 7.92135 14.8398 15.7751C14.8398 23.385 20.98 30.9233 31.3363 31.4427V29.0261V29.0271Z" fill="#D46229"/>
<path d="M45.3759 15.6895C44.3641 16.3123 43.5241 16.9938 42.6479 17.9917C42.3646 18.3081 40.984 20.0451 41.3015 22.9662C41.3628 23.5203 41.8612 24.0605 42.3274 24.0794C42.8951 24.1799 44.138 23.1751 44.8836 19.4731C45.0473 18.6801 45.3236 17.3291 45.3759 15.6905V15.6895ZM32.2013 0C36.1611 0.056709 39.9682 1.47045 42.7806 4.04425C45.2352 6.29669 46.7273 9.09036 47.2478 12.3864C51.8939 10.6086 56.0476 12.3059 58.2501 14.9891C60.8997 18.2145 60.8655 22.5393 58.1717 25.7618C55.0881 29.4598 50.7635 31.8078 47.288 33.6901C44.5249 35.1914 41.9124 36.6131 41.7587 37.8587C41.6934 38.4288 42.1395 39.1501 43.1021 40.0167L43.8768 40.727L42.454 42.2542L41.6773 41.5558C40.1722 40.1918 39.513 38.9034 39.6698 37.611C39.9541 35.3029 42.7454 33.7896 46.2742 31.8635C49.5929 30.0667 53.7236 27.8232 56.557 24.4356C59.063 21.43 58.1566 18.1777 56.6203 16.3073C54.9574 14.2807 51.5975 12.6849 47.4487 14.5613C47.498 16.2257 47.3312 18.0026 46.9494 19.879C45.817 25.4803 43.5161 26.2294 42.241 26.1657C40.7157 26.0991 39.4769 24.7779 39.2076 23.1791C38.5444 19.2244 40.5248 17.2356 41.0624 16.6237C42.3786 15.1164 43.6477 14.223 45.2814 13.3266C44.979 10.8006 43.9652 7.9711 41.3498 5.5734C38.5474 3.00458 35.2699 2.13703 32.0586 2.41362L32.2023 0L32.2013 0Z" fill="#D46229"/>
</g>
<defs>
<clipPath id="clip0">
<rect width="74.2857" height="80" fill="white"/>
</clipPath>
</defs>
</svg>
