<svg width="6" height="9" viewBox="0 0 6 9" fill="none" xmlns="http://www.w3.org/2000/svg">
<path d="M1.656 5.696L2.868 5.252C2.748 5.096 2.7 4.94 2.7 4.772C2.7 3.812 5.076 3.428 5.076 1.772C5.076 0.788 4.344 0.0199997 2.892 0.0199997C2.1 0.0199997 1.272 0.296 0.48 0.98L1.128 1.904C1.656 1.436 2.148 1.232 2.652 1.232C3.168 1.232 3.48 1.484 3.48 1.928C3.48 2.936 1.284 3.26 1.284 4.688C1.284 5.06 1.416 5.408 1.656 5.696ZM2.328 8.108C2.772 8.108 3.132 7.748 3.132 7.28C3.132 6.812 2.772 6.464 2.328 6.464C1.884 6.464 1.536 6.812 1.536 7.28C1.536 7.748 1.884 8.108 2.328 8.108Z" fill="white"/>
</svg>
