<svg width="25" height="25" viewBox="0 0 25 25" fill="none" xmlns="http://www.w3.org/2000/svg">
<g clip-path="url(#clip0)">
<path d="M24.2676 1.51367H6.64062C6.23613 1.51367 5.9082 1.8416 5.9082 2.24609V11.8156C4.92808 11.9835 4.02427 12.4834 3.36206 13.2324H2.97852V12.5C2.97852 12.0955 2.65059 11.7676 2.24609 11.7676H0.732422C0.32793 11.7676 0 12.0955 0 12.5C0 12.9045 0.32793 13.2324 0.732422 13.2324H1.51367V22.0215H0.732422C0.32793 22.0215 0 22.3494 0 22.7539C0 23.1584 0.32793 23.4863 0.732422 23.4863H2.24609C2.65059 23.4863 2.97852 23.1584 2.97852 22.7539V22.0215H3.59692C8.26797 23.4999 8.09146 23.4863 8.30078 23.4863H18.3594C19.8746 23.4863 20.936 21.9815 20.4307 20.5566H24.2676C24.6721 20.5566 25 20.2287 25 19.8242V2.24609C25 1.8416 24.6721 1.51367 24.2676 1.51367ZM13.9648 2.97852H16.8945V6.64062H13.9648V2.97852ZM19.0918 21.2891C19.0918 21.6929 18.7632 22.0215 18.3594 22.0215H8.41479C3.7438 20.5431 3.92031 20.5566 3.71094 20.5566H2.97852V14.6973H3.71094C3.94355 14.6973 4.16235 14.5868 4.30039 14.3996C5.4604 12.8267 7.81992 12.8254 8.98081 14.3996C9.1189 14.5868 9.3377 14.6973 9.57031 14.6973H13.2324C13.6363 14.6973 13.9648 15.0258 13.9648 15.4297C13.9648 15.8335 13.6363 16.1621 13.2324 16.1621H8.83789C8.4334 16.1621 8.10547 16.49 8.10547 16.8945C8.10547 18.9138 9.74829 20.5566 11.7676 20.5566H18.3594C18.7632 20.5566 19.0918 20.8852 19.0918 21.2891ZM23.5352 19.0918C23.0911 19.0918 12.3708 19.0918 11.7676 19.0918C10.8127 19.0918 9.9981 18.4795 9.6958 17.627H13.2324C14.444 17.627 15.4297 16.6413 15.4297 15.4297C15.4297 14.2181 14.444 13.2324 13.2324 13.2324H9.91919C9.25703 12.4834 8.35317 11.9835 7.37305 11.8156V2.97852H12.5V7.37305C12.5 7.77754 12.8279 8.10547 13.2324 8.10547H17.627C18.0314 8.10547 18.3594 7.77754 18.3594 7.37305V2.97852H23.5352V19.0918Z" fill="#5E2F26"/>
</g>
<defs>
<clipPath id="clip0">
<rect width="25" height="25" fill="white"/>
</clipPath>
</defs>
</svg>
