<svg width="25" height="25" viewBox="0 0 25 25" fill="none" xmlns="http://www.w3.org/2000/svg">
<g clip-path="url(#clip0)">
<path d="M23.4005 11.4814C22.2097 10.2906 20.6009 9.76645 19.042 9.90869V4.44336C19.042 3.23179 18.0564 2.24609 16.8449 2.24609H2.16484C1.01958 2.24609 0 3.20894 0 4.44336V19.0918C0 20.3034 0.985645 21.2891 2.19717 21.2891C17.3882 21.2387 16.9318 21.4096 17.6287 21.1437L19.0243 22.5394C19.3103 22.8254 19.774 22.8254 20.06 22.5394L23.4006 19.1986C25.533 17.0661 25.5333 13.6143 23.4005 11.4814ZM8.10508 3.71094H11.0346V7.37305H8.10508V3.71094ZM2.19717 19.8242C1.79331 19.8242 1.46479 19.4957 1.46479 19.0918V4.44336C1.46479 4.0395 1.79336 3.71094 2.19717 3.71094H6.64033V8.10547C6.64033 8.50996 6.96821 8.83789 7.3727 8.83789H11.767C12.1715 8.83789 12.4994 8.50996 12.4994 8.10547V3.71094H16.8449C17.2488 3.71094 17.5773 4.0395 17.5773 4.44336V10.2497C16.8868 10.5151 16.2396 10.9255 15.6837 11.4814C13.5562 13.6091 13.5562 17.071 15.6837 19.1987L16.3092 19.8242H2.19717ZM22.3648 18.1629L19.5421 20.9857L16.7194 18.1629C15.1594 16.6027 15.1592 14.0776 16.7194 12.5172C18.2759 10.9607 20.8083 10.9607 22.3647 12.5172C23.9248 14.0773 23.925 16.6025 22.3648 18.1629Z" fill="#5E2F26"/>
<path d="M19.5682 13.0225C18.2813 13.0225 17.2344 14.0695 17.2344 15.3564C17.2344 16.6434 18.2813 17.6905 19.5682 17.6905C20.8551 17.6905 21.9021 16.6435 21.9021 15.3564C21.9021 14.0695 20.8551 13.0225 19.5682 13.0225ZM19.5682 16.2256C19.089 16.2256 18.6991 15.8357 18.6991 15.3564C18.6991 14.8772 19.089 14.4873 19.5682 14.4873C20.0475 14.4873 20.4373 14.8772 20.4373 15.3564C20.4373 15.8357 20.0474 16.2256 19.5682 16.2256Z" fill="#5E2F26"/>
<path d="M8.10816 13.9648H3.70894C3.30444 13.9648 2.97656 14.2928 2.97656 14.6973C2.97656 15.1018 3.30444 15.4297 3.70894 15.4297H8.10816C8.51265 15.4297 8.84053 15.1018 8.84053 14.6973C8.84053 14.2928 8.51265 13.9648 8.10816 13.9648Z" fill="#5E2F26"/>
<path d="M8.10328 16.8945H3.70894C3.30444 16.8945 2.97656 17.2225 2.97656 17.627C2.97656 18.0314 3.30444 18.3594 3.70894 18.3594H8.10328C8.50777 18.3594 8.83565 18.0314 8.83565 17.627C8.83565 17.2225 8.50777 16.8945 8.10328 16.8945Z" fill="#5E2F26"/>
</g>
<defs>
<clipPath id="clip0">
<rect width="25" height="25" fill="white"/>
</clipPath>
</defs>
</svg>
