<svg width="36" height="36" viewBox="0 0 36 36" fill="none" xmlns="http://www.w3.org/2000/svg">
<path d="M36 18C36 27.9411 27.9411 36 18 36C8.05887 36 0 27.9411 0 18C0 8.05887 8.05887 0 18 0C27.9411 0 36 8.05887 36 18Z" fill="#698BC8"/>
<path d="M14.7341 19.8815L14.4165 24.237C14.8709 24.237 15.0677 24.0467 15.3037 23.8181L17.4342 21.833L21.8487 24.985C22.6583 25.4249 23.2287 25.1933 23.4471 24.2588L26.3448 11.0207L26.3456 11.0199C26.6024 9.85307 25.9128 9.39677 25.124 9.68303L8.09156 16.0408C6.92913 16.4807 6.94673 17.1125 7.89395 17.3988L12.2485 18.7193L22.3631 12.5487C22.8391 12.2414 23.2719 12.4115 22.9159 12.7188L14.7341 19.8815Z" fill="white"/>
</svg>
