<svg width="17" height="17" viewBox="0 0 17 17" fill="none" xmlns="http://www.w3.org/2000/svg">
<path d="M6.92609 6.15918C7.146 6.15918 7.32422 6.3374 7.32422 6.55731V14.0819C7.32422 14.3016 7.146 14.48 6.92609 14.48C6.70619 14.48 6.52797 14.3016 6.52797 14.0819V6.55731C6.52797 6.3374 6.70619 6.15918 6.92609 6.15918Z" fill="#5E2F26" fill-opacity="0.4"/>
<path d="M11.6253 6.15918C11.8452 6.15918 12.0234 6.3374 12.0234 6.55731V14.0819C12.0234 14.3016 11.8452 14.48 11.6253 14.48C11.4054 14.48 11.2272 14.3016 11.2272 14.0819V6.55731C11.2272 6.3374 11.4054 6.15918 11.6253 6.15918Z" fill="#5E2F26" fill-opacity="0.4"/>
<path d="M15.0489 5.06106V14.87C15.0489 15.4498 14.8364 15.9943 14.465 16.3849C14.0953 16.7767 13.5809 16.9991 13.0425 17H5.5098C4.97124 16.9991 4.45679 16.7767 4.08728 16.3849C3.71591 15.9943 3.50331 15.4498 3.50331 14.87V5.06106C2.76507 4.86511 2.2867 4.15191 2.38545 3.39438C2.48436 2.63701 3.1296 2.07046 3.89351 2.0703H5.93188V1.57265C5.92954 1.15415 6.09502 0.752291 6.39128 0.456652C6.68754 0.161169 7.09002 -0.00336908 7.50852 5.23104e-05H11.0437C11.4622 -0.00336908 11.8647 0.161169 12.161 0.456652C12.4572 0.752291 12.6227 1.15415 12.6204 1.57265V2.0703H14.6588C15.4227 2.07046 16.0679 2.63701 16.1668 3.39438C16.2656 4.15191 15.7872 4.86511 15.0489 5.06106ZM5.5098 16.2037H13.0425C13.7232 16.2037 14.2527 15.619 14.2527 14.87V5.09606H4.29956V14.87C4.29956 15.619 4.8291 16.2037 5.5098 16.2037ZM11.8241 1.57265C11.8268 1.36534 11.7453 1.16581 11.5982 1.01947C11.4512 0.873129 11.2512 0.792726 11.0437 0.796303H7.50852C7.30106 0.792726 7.10106 0.873129 6.9541 1.01947C6.80698 1.16566 6.72548 1.36534 6.72813 1.57265V2.0703H11.8241V1.57265ZM14.6588 2.86655H3.89351C3.49771 2.86655 3.17688 3.18739 3.17688 3.58318C3.17688 3.97897 3.49771 4.2998 3.89351 4.2998H14.6588C15.0545 4.2998 15.3754 3.97897 15.3754 3.58318C15.3754 3.18739 15.0545 2.86655 14.6588 2.86655Z" fill="#5E2F26" fill-opacity="0.4"/>
<path d="M9.27766 6.15918C9.49756 6.15918 9.67578 6.3374 9.67578 6.55731V14.0819C9.67578 14.3016 9.49756 14.48 9.27766 14.48C9.05775 14.48 8.87953 14.3016 8.87953 14.0819V6.55731C8.87953 6.3374 9.05775 6.15918 9.27766 6.15918Z" fill="#5E2F26" fill-opacity="0.4"/>
</svg>
