<svg width="19" height="18" viewBox="0 0 19 18" fill="none" xmlns="http://www.w3.org/2000/svg">
<path fill-rule="evenodd" clip-rule="evenodd" d="M10.2154 17.3431L9.71489 17.8153C9.45658 18.0616 9.04894 18.0616 8.79063 17.8153L8.29015 17.3431C5.65054 14.8488 1.6548 11.067 0.395538 7.83811C0.125119 7.14793 0 6.44565 0 5.76355C0 4.59308 0.363249 3.46297 1.00095 2.51853C1.63866 1.57812 2.55485 0.815292 3.65671 0.387466C4.29441 0.141264 4.99266 0 5.72723 0C6.45776 0 7.18022 0.1453 7.85829 0.415718L7.89461 0.427827C8.38298 0.625596 8.83906 0.891978 9.25478 1.22294C9.6705 0.896014 10.1306 0.629632 10.6149 0.427827C11.297 0.149336 12.0357 0 12.7783 0C13.5129 0 14.2111 0.137227 14.8488 0.387466C15.9507 0.819328 16.8669 1.57812 17.5046 2.51853C18.1423 3.46297 18.5055 4.59308 18.5055 5.76355C18.5055 6.44969 18.3804 7.14793 18.11 7.83811C16.8507 11.067 12.855 14.8488 10.2154 17.3431Z" fill="#6D3939"/>
</svg>
