<svg width="28" height="27" viewBox="0 0 28 27" fill="none" xmlns="http://www.w3.org/2000/svg">
<path d="M9.49981 22.4283C6.85015 21.0668 5.12369 18.4058 4.96793 15.4207C4.95599 15.3622 4.94974 15.3014 4.94974 15.2394V13.8427C2.10281 13.4231 0.480956 12.3385 0.390001 12.2765C0.14783 12.1111 0.00230078 11.8376 2.68801e-05 11.5443C-0.00224702 11.2515 0.139872 10.9758 0.3792 10.8076C0.418424 10.7797 0.749276 10.5529 2.17501 9.73372C1.99537 9.54328 1.90555 9.28121 1.93682 9.01573C1.97434 8.69568 2.18013 8.42111 2.47687 8.29605C2.50359 8.28468 5.31413 7.067 7.12415 4.66861C7.27082 4.47419 7.40896 4.26613 7.55506 4.04613L7.5903 3.99326C7.98596 3.39864 8.5857 2.97626 9.27924 2.80458C10.5714 2.48453 11.8959 3.08882 12.5008 4.27295C12.5588 4.38551 12.6878 4.49352 12.8561 4.56913L13.179 4.71409C13.4643 4.84256 13.6622 5.11088 13.6997 5.42127C13.7378 5.73222 13.6104 6.03977 13.3643 6.23305C13.1784 6.37915 13.0795 6.60711 13.1 6.84359C13.1949 7.92369 13.2546 10.6257 11.7657 12.3834C11.3792 12.8399 10.9221 13.1991 10.3974 13.4601V15.1621C10.4588 16.1075 10.9892 16.963 11.7919 17.4434C12.0989 17.0483 12.4314 16.6702 12.7896 16.3121C13.9953 15.1064 15.4063 14.1883 16.9838 13.5812V10.7416C16.4596 10.4807 16.002 10.1208 15.6155 9.66436C14.1266 7.90778 14.1857 5.20525 14.2812 4.12458C14.3017 3.88809 14.2034 3.66013 14.018 3.5146C13.7713 3.32189 13.644 3.01378 13.6815 2.70282C13.719 2.39244 13.9169 2.12355 14.2022 1.99507L14.5257 1.84954C14.694 1.77337 14.8236 1.66536 14.8816 1.5528C15.4864 0.369234 16.8121 -0.235055 18.1025 0.0849963C18.7966 0.256107 19.3964 0.678484 19.792 1.27368L19.8244 1.32257C19.9717 1.5437 20.1104 1.7529 20.2576 1.94846C22.0682 4.34628 24.8788 5.56452 24.9066 5.57646C25.2022 5.70266 25.408 5.97781 25.445 6.29672C25.4757 6.56163 25.3864 6.82313 25.2073 7.01357C26.6325 7.83274 26.9633 8.05956 27.0026 8.08741C27.2419 8.25625 27.384 8.53196 27.3817 8.82473C27.3795 9.11806 27.2339 9.3915 26.9923 9.55692C26.9014 9.61889 25.2795 10.7035 22.4326 11.1231V12.8262C22.8828 12.8672 23.3302 12.9337 23.7725 13.0246C24.6354 13.2026 25.2733 13.949 25.3222 14.8398C25.3244 14.8847 25.3261 14.9284 25.3256 14.9722C25.3028 21.6029 19.8875 27 13.2534 27C6.59661 27 1.18132 21.5847 1.18132 14.9279C1.18132 14.4344 1.58152 14.0337 2.07553 14.0337C2.56953 14.0337 2.96974 14.4339 2.96974 14.9279C2.96974 19.1846 5.56824 22.8444 9.26218 24.4055C9.28663 23.7375 9.36678 23.0764 9.49981 22.4278V22.4283ZM10.8028 18.9339C9.57371 18.1665 8.75283 16.8499 8.62208 15.3895C8.61355 15.3406 8.60958 15.2906 8.60958 15.2394V15.2098C8.6056 15.1331 8.60332 15.0563 8.60332 14.979C8.60332 14.9438 8.6056 14.9097 8.60958 14.8756V13.9473L8.51862 13.9552C8.06896 13.9905 7.63521 14.0064 7.21909 14.0064C7.05593 14.0064 6.89562 14.0035 6.73759 13.999V14.867C6.74214 14.904 6.74441 14.9409 6.74441 14.979C6.74441 17.3439 7.99903 19.4944 10.0023 20.6655C10.2229 20.0692 10.4901 19.4899 10.8022 18.9339H10.8028ZM11.0432 24.9728C11.6214 25.1002 12.2171 25.178 12.8265 25.2031C12.6145 22.8012 13.4808 20.392 15.1925 18.6792C17.3374 16.535 20.514 15.7584 23.3939 16.6401C23.486 16.0944 23.5354 15.5344 23.5377 14.9637C23.5326 14.8585 23.4797 14.7903 23.4115 14.7761C22.5872 14.6061 21.7396 14.5379 20.8955 14.5731C19.7932 14.6186 18.7131 14.8392 17.6841 15.228C16.3175 15.7442 15.0964 16.5338 14.0544 17.5758C12.0921 19.5388 11.0108 22.2095 11.0432 24.9728ZM14.6144 25.1212C15.2056 25.0422 15.7815 24.9137 16.3369 24.738C16.2612 23.4124 16.7518 22.1202 17.6932 21.18C18.8774 19.9953 20.5964 19.5416 22.2069 19.9782C22.4957 19.4688 22.7424 18.9322 22.942 18.3734C20.6709 17.6469 18.152 18.2489 16.4574 19.9441C15.08 21.3215 14.4165 23.1952 14.6144 25.1212ZM18.1634 23.9592C19.2685 23.3555 20.2514 22.5545 21.0649 21.6046C20.2872 21.583 19.5232 21.878 18.9575 22.4437C18.5403 22.8609 18.2668 23.3902 18.1634 23.9587V23.9592ZM18.7722 13.0474C19.3867 12.9149 20.012 12.8302 20.6436 12.795V11.28C20.4856 11.2845 20.3253 11.2874 20.1621 11.2874C19.7454 11.2874 19.3128 11.2714 18.8626 11.2362L18.7722 11.2282V13.0468V13.0474ZM15.8792 3.09962C16.0333 3.46628 16.0987 3.87047 16.0623 4.28148C16.0037 4.94943 15.8963 7.23016 16.9798 8.50865C17.4613 9.07656 18.1224 9.38581 19.0007 9.45403C21.5026 9.6456 23.4189 9.17548 24.6059 8.73263C24.3126 8.56266 23.9601 8.36085 23.536 8.12039C23.0375 8.40178 22.4883 8.6701 21.9966 8.81393C21.2496 9.03279 20.4736 9.06292 19.6909 8.90545C17.9883 8.56323 16.9178 7.28814 16.7535 5.40763C16.7109 4.91533 17.0747 4.48158 17.5665 4.43894C18.0576 4.39517 18.4925 4.76013 18.5357 5.25186C18.6625 6.70886 19.4572 7.03403 20.0433 7.15171C20.547 7.25289 21.0217 7.2347 21.4946 7.09656C21.871 6.98628 22.3468 6.74354 22.7924 6.48375C21.6612 5.80897 20.0672 4.66633 18.8285 3.02572C18.6488 2.78752 18.4885 2.54592 18.3333 2.31228L18.3009 2.26339C18.1543 2.04282 17.9309 1.88536 17.6722 1.82112C17.1907 1.70231 16.6973 1.92685 16.4721 2.36685C16.3295 2.64597 16.1282 2.89269 15.8787 3.09905L15.8792 3.09962ZM2.77475 11.4516C3.96173 11.8939 5.87749 12.3663 8.37991 12.1725C9.25821 12.1043 9.91991 11.795 10.4008 11.2277C11.4844 9.94917 11.3769 7.66902 11.3184 7.00049C11.282 6.58948 11.3479 6.1853 11.502 5.81806C11.2513 5.61228 11.0506 5.36556 10.9079 5.08701C10.6828 4.64587 10.1894 4.42132 9.70787 4.5407C9.44978 4.60437 9.22637 4.76184 9.07914 4.98411L9.04389 5.03641C8.88983 5.26835 8.73009 5.50824 8.55159 5.74587C7.31402 7.38592 5.71945 8.52855 4.58819 9.20276C5.03444 9.46369 5.51082 9.707 5.88601 9.81615C6.35842 9.95429 6.83309 9.97305 7.33733 9.87072C7.924 9.75305 8.71872 9.42731 8.84606 7.97145C8.8887 7.47858 9.32301 7.11248 9.81417 7.15796C10.3065 7.20116 10.6703 7.63434 10.6277 8.12664C10.4634 10.0072 9.39293 11.2822 7.69035 11.6239C6.90756 11.7819 6.13216 11.7512 5.38462 11.5324C4.89289 11.3891 4.34374 11.1208 3.84519 10.8394C3.42168 11.0793 3.06865 11.2822 2.77532 11.4516H2.77475Z" fill="#4479BC"/>
</svg>
