<svg width="22" height="22" viewBox="0 0 22 22" fill="none" xmlns="http://www.w3.org/2000/svg">
<path d="M15.5369 12.7193L17.2664 14.4489C17.6595 14.8419 17.8851 15.1859 17.894 15.6593C17.9022 16.1118 17.6958 16.5103 17.2241 16.9815L16.3351 17.8705C16.1975 18.0081 16.0725 18.1116 15.9481 18.1964C15.8094 18.291 15.6839 18.3521 15.5534 18.4017C14.5923 18.7644 13.4507 18.651 12.2557 18.2002C10.5999 17.5754 8.79219 16.283 7.25367 14.745C5.7157 13.207 4.42324 11.3988 3.79847 9.74303C3.34765 8.548 3.23426 7.40635 3.597 6.44526C3.646 6.3148 3.70765 6.1893 3.80232 6.05059C3.88709 5.92618 3.99113 5.80123 4.12819 5.66362L5.01718 4.77463C5.48837 4.30344 5.88689 4.09647 6.33937 4.10473C6.81276 4.11354 7.15734 4.33922 7.54982 4.73225L9.27934 6.46177C9.72852 6.91095 9.88595 7.32819 9.83696 7.77296C9.79072 8.19185 9.57164 8.50341 9.25017 8.82432L8.51972 9.55478C8.50045 9.57404 8.87421 10.0733 9.36356 10.7025C9.62778 11.0421 9.93934 11.3916 10.2729 11.7252C10.6065 12.0588 10.956 12.3704 11.2957 12.6346C11.9243 13.1234 12.4241 13.4977 12.4434 13.4784L13.1738 12.748C13.4953 12.427 13.8068 12.2074 14.2252 12.1612C14.6699 12.1122 15.0872 12.2696 15.5364 12.7188L15.5369 12.7193ZM15.3861 14.8678L14.387 13.8687C14.3281 13.8098 14.4679 13.768 14.403 13.7751C14.3639 13.7795 14.4008 13.8202 14.3232 13.8984L13.5927 14.6289C12.86 15.3615 11.5632 14.9019 10.2988 13.9182C9.90191 13.61 9.50063 13.2522 9.12357 12.8757C8.74706 12.4992 8.38926 12.0973 8.08101 11.7004C7.09734 10.4355 6.63771 9.13918 7.37092 8.40653L8.10137 7.67608C8.17954 7.59791 8.22027 7.63534 8.22467 7.59626C8.23183 7.53131 8.19 7.67112 8.1311 7.61222L6.40157 5.8827C6.30029 5.78141 6.37295 5.72637 6.31515 5.72527C6.27882 5.72472 6.30524 5.78747 6.16763 5.92508L5.27864 6.81407C5.20818 6.88452 5.1658 6.93241 5.14323 6.96599C5.13002 6.98526 5.12231 7.00122 5.11571 7.01773C4.90323 7.5814 5.00066 8.33387 5.31717 9.17221C5.85717 10.6039 7.01367 12.2052 8.40412 13.5962C9.79512 14.9872 11.3964 16.1432 12.8281 16.6832C13.6665 16.9997 14.4189 17.0971 14.9826 16.8846C14.9991 16.8786 15.0151 16.8703 15.0343 16.8571C15.0679 16.8345 15.1158 16.7921 15.1863 16.7217L16.0753 15.8327C16.2129 15.6951 16.2756 15.7221 16.2751 15.6852C16.274 15.6274 16.2189 15.7 16.1176 15.5988L15.3866 14.8678H15.3861Z" fill="#73645C"/>
<path d="M11.6647 7.51864C11.4693 7.49882 11.2805 7.4091 11.1396 7.25057C10.8412 6.91589 10.8715 6.40232 11.2062 6.10397C11.3922 5.93828 11.6339 5.87388 11.8623 5.90691C12.3863 5.96966 12.9038 6.11883 13.3909 6.35443C13.8704 6.58617 14.3173 6.89828 14.7092 7.2902C15.1012 7.68212 15.4133 8.12854 15.645 8.60854C15.8768 9.08853 16.0254 9.59715 16.0892 10.1129C16.1333 10.365 16.0579 10.6337 15.8636 10.8285C15.5459 11.1461 15.0313 11.1461 14.7142 10.8285C14.57 10.6843 14.4913 10.4988 14.4781 10.31C14.4346 9.96596 14.3371 9.62853 14.1847 9.31312C14.0338 9.00046 13.8258 8.70487 13.5605 8.43955C13.2951 8.17423 12.999 7.96616 12.6869 7.81533C12.3638 7.659 12.0175 7.55992 11.6647 7.51864Z" fill="#73645C"/>
<path d="M11.4741 4.76694C11.4664 4.75923 11.4581 4.75097 11.451 4.74272C11.1477 4.413 11.1691 3.89997 11.4989 3.59612L11.4994 3.59557C11.68 3.42933 11.915 3.36053 12.1412 3.3864C12.9515 3.47943 13.7508 3.70731 14.5027 4.07061C15.2298 4.4218 15.9091 4.89684 16.5063 5.49409C17.1036 6.09133 17.5781 6.77059 17.9298 7.49774C18.286 8.23425 18.5116 9.01644 18.608 9.80965C18.6526 10.0623 18.5771 10.3315 18.3823 10.5263L18.3817 10.5269C18.0641 10.8445 17.5494 10.8445 17.2324 10.5269C17.0876 10.3821 17.0089 10.1966 16.9962 10.0078C16.9208 9.3858 16.7452 8.77534 16.4689 8.20287C16.1981 7.64251 15.8276 7.11462 15.357 6.64399C14.8863 6.17335 14.3579 5.80234 13.7981 5.53207C13.2256 5.25574 12.6157 5.0796 11.9937 5.00473C11.8044 4.99152 11.6194 4.91336 11.4746 4.76859L11.4741 4.76804L11.4752 4.76694H11.4741Z" fill="#73645C"/>
</svg>
