<svg width="22" height="22" viewBox="0 0 22 22" fill="none" xmlns="http://www.w3.org/2000/svg">
<path d="M10.1555 5.23348C9.9815 4.61704 9.56185 4.12241 9.05388 3.76707C8.4247 3.32697 7.68349 3.10322 7.09876 3.12041C6.183 3.14737 5.27346 3.59963 4.54736 4.31653C3.80349 5.05092 3.26411 6.05145 3.10704 7.15718C2.92062 8.47096 3.28545 9.87691 4.50469 11.6865C5.73756 13.5169 7.81093 15.7209 11.0004 18.5767C14.1896 15.7209 16.2629 13.5169 17.4961 11.6865C18.7153 9.87662 19.0802 8.47067 18.8938 7.15718C18.737 6.05145 18.1973 5.05063 17.4534 4.31653C16.7273 3.59963 15.8178 3.14737 14.902 3.12041C14.317 3.10322 13.5761 3.32697 12.9469 3.76707C12.4372 4.1236 12.016 4.6206 11.8436 5.24C11.7191 5.69225 11.241 5.96076 10.7755 5.83984C10.4607 5.75805 10.2325 5.51918 10.1561 5.23348H10.1555ZM10.0707 2.39461C10.4106 2.63229 10.7266 2.91295 11.0001 3.23451C11.2736 2.91295 11.5896 2.63229 11.9295 2.39461C12.8708 1.73609 14.0183 1.40209 14.9495 1.42965C16.3326 1.47025 17.6656 2.11306 18.6952 3.12959C19.6886 4.11026 20.4097 5.44953 20.6201 6.93165C20.864 8.65115 20.4322 10.4234 18.9563 12.6144C17.5684 14.6748 15.226 17.1384 11.5872 20.351C11.2582 20.6423 10.7491 20.648 10.4133 20.351C6.77454 17.1384 4.43208 14.6748 3.04421 12.6144C1.56831 10.4234 1.13651 8.65115 1.38042 6.93165C1.59084 5.44953 2.31189 4.11026 3.3053 3.12959C4.33487 2.11306 5.66792 1.47055 7.05105 1.42965C7.98193 1.40238 9.12945 1.73609 10.071 2.39461H10.0707Z" fill="#5E2F26"/>
</svg>
