<svg width="42" height="52" viewBox="0 0 42 52" fill="none" xmlns="http://www.w3.org/2000/svg">
<path d="M21.0002 0C9.42063 0 0 9.42063 0 21.0002C0 26.599 3.23252 33.1679 9.60774 40.5251C14.1228 45.7356 18.5876 49.4492 18.7755 49.6048L21.0002 51.4469L23.2249 49.6048C23.4129 49.4497 27.8772 45.7356 32.3923 40.5251C38.7675 33.1679 42 26.5985 42 21.0002C42.0004 9.42063 32.5798 0 21.0002 0Z" fill="#5E2F26"/>
<path d="M16.4998 29.4283C13.8501 28.0668 12.1237 25.4058 11.9679 22.4207C11.956 22.3622 11.9497 22.3014 11.9497 22.2394V20.8427C9.10281 20.4231 7.48096 19.3385 7.39 19.2765C7.14783 19.1111 7.0023 18.8376 7.00003 18.5443C6.99775 18.2515 7.13987 17.9758 7.3792 17.8076C7.41842 17.7797 7.74928 17.5529 9.17501 16.7337C8.99537 16.5433 8.90555 16.2812 8.93682 16.0157C8.97434 15.6957 9.18013 15.4211 9.47687 15.296C9.50359 15.2847 12.3141 14.067 14.1242 11.6686C14.2708 11.4742 14.409 11.2661 14.5551 11.0461L14.5903 10.9933C14.986 10.3986 15.5857 9.97626 16.2792 9.80458C17.5714 9.48453 18.8959 10.0888 19.5008 11.2729C19.5588 11.3855 19.6878 11.4935 19.8561 11.5691L20.179 11.7141C20.4643 11.8426 20.6622 12.1109 20.6997 12.4213C20.7378 12.7322 20.6104 13.0398 20.3643 13.2331C20.1784 13.3791 20.0795 13.6071 20.1 13.8436C20.1949 14.9237 20.2546 17.6257 18.7657 19.3834C18.3792 19.8399 17.9221 20.1991 17.3974 20.4601V22.1621C17.4588 23.1075 17.9892 23.963 18.7919 24.4434C19.0989 24.0483 19.4314 23.6702 19.7896 23.3121C20.9953 22.1064 22.4063 21.1883 23.9838 20.5812V17.7416C23.4596 17.4807 23.002 17.1208 22.6155 16.6644C21.1266 14.9078 21.1857 12.2052 21.2812 11.1246C21.3017 10.8881 21.2034 10.6601 21.018 10.5146C20.7713 10.3219 20.644 10.0138 20.6815 9.70282C20.719 9.39244 20.9169 9.12355 21.2022 8.99507L21.5257 8.84954C21.694 8.77337 21.8236 8.66536 21.8816 8.5528C22.4864 7.36923 23.8121 6.76495 25.1025 7.085C25.7966 7.25611 26.3964 7.67848 26.792 8.27368L26.8244 8.32257C26.9717 8.5437 27.1104 8.7529 27.2576 8.94846C29.0682 11.3463 31.8788 12.5645 31.9066 12.5765C32.2022 12.7027 32.408 12.9778 32.445 13.2967C32.4757 13.5616 32.3864 13.8231 32.2073 14.0136C33.6325 14.8327 33.9633 15.0596 34.0026 15.0874C34.2419 15.2563 34.384 15.532 34.3817 15.8247C34.3795 16.1181 34.2339 16.3915 33.9923 16.5569C33.9014 16.6189 32.2795 17.7035 29.4326 18.1231V19.8262C29.8828 19.8672 30.3302 19.9337 30.7725 20.0246C31.6354 20.2026 32.2733 20.949 32.3222 21.8398C32.3244 21.8847 32.3261 21.9284 32.3256 21.9722C32.3028 28.6029 26.8875 34 20.2534 34C13.5966 34 8.18132 28.5847 8.18132 21.9279C8.18132 21.4344 8.58152 21.0337 9.07553 21.0337C9.56953 21.0337 9.96974 21.4339 9.96974 21.9279C9.96974 26.1846 12.5682 29.8444 16.2622 31.4055C16.2866 30.7375 16.3668 30.0764 16.4998 29.4278V29.4283ZM17.8028 25.9339C16.5737 25.1665 15.7528 23.8499 15.6221 22.3895C15.6136 22.3406 15.6096 22.2906 15.6096 22.2394V22.2098C15.6056 22.1331 15.6033 22.0563 15.6033 21.979C15.6033 21.9438 15.6056 21.9097 15.6096 21.8756V20.9473L15.5186 20.9552C15.069 20.9905 14.6352 21.0064 14.2191 21.0064C14.0559 21.0064 13.8956 21.0035 13.7376 20.999V21.867C13.7421 21.904 13.7444 21.9409 13.7444 21.979C13.7444 24.3439 14.999 26.4944 17.0023 27.6655C17.2229 27.0692 17.4901 26.4899 17.8022 25.9339H17.8028ZM18.0432 31.9728C18.6214 32.1002 19.2171 32.178 19.8265 32.2031C19.6145 29.8012 20.4808 27.392 22.1925 25.6792C24.3374 23.535 27.514 22.7584 30.3939 23.6401C30.486 23.0944 30.5354 22.5344 30.5377 21.9637C30.5326 21.8585 30.4797 21.7903 30.4115 21.7761C29.5872 21.6061 28.7396 21.5379 27.8955 21.5731C26.7932 21.6186 25.7131 21.8392 24.6841 22.228C23.3175 22.7442 22.0964 23.5338 21.0544 24.5758C19.0921 26.5388 18.0108 29.2095 18.0432 31.9728ZM21.6144 32.1212C22.2056 32.0422 22.7815 31.9137 23.3369 31.738C23.2612 30.4124 23.7518 29.1202 24.6932 28.18C25.8774 26.9953 27.5964 26.5416 29.2069 26.9782C29.4957 26.4688 29.7424 25.9322 29.942 25.3734C27.6709 24.6469 25.152 25.2489 23.4574 26.9441C22.08 28.3215 21.4165 30.1952 21.6144 32.1212ZM25.1634 30.9592C26.2685 30.3555 27.2514 29.5545 28.0649 28.6046C27.2872 28.583 26.5232 28.878 25.9575 29.4437C25.5403 29.8609 25.2668 30.3902 25.1634 30.9587V30.9592ZM25.7722 20.0474C26.3867 19.9149 27.012 19.8302 27.6436 19.795V18.28C27.4856 18.2845 27.3253 18.2874 27.1621 18.2874C26.7454 18.2874 26.3128 18.2714 25.8626 18.2362L25.7722 18.2282V20.0468V20.0474ZM22.8792 10.0996C23.0333 10.4663 23.0987 10.8705 23.0623 11.2815C23.0037 11.9494 22.8963 14.2302 23.9798 15.5087C24.4613 16.0766 25.1224 16.3858 26.0007 16.454C28.5026 16.6456 30.4189 16.1755 31.6059 15.7326C31.3126 15.5627 30.9601 15.3609 30.536 15.1204C30.0375 15.4018 29.4883 15.6701 28.9966 15.8139C28.2496 16.0328 27.4736 16.0629 26.6909 15.9054C24.9883 15.5632 23.9178 14.2881 23.7535 12.4076C23.7109 11.9153 24.0747 11.4816 24.5665 11.4389C25.0576 11.3952 25.4925 11.7601 25.5357 12.2519C25.6625 13.7089 26.4572 14.034 27.0433 14.1517C27.547 14.2529 28.0217 14.2347 28.4946 14.0966C28.871 13.9863 29.3468 13.7435 29.7924 13.4837C28.6612 12.809 27.0672 11.6663 25.8285 10.0257C25.6488 9.78752 25.4885 9.54592 25.3333 9.31228L25.3009 9.26339C25.1543 9.04282 24.9309 8.88536 24.6722 8.82112C24.1907 8.70231 23.6973 8.92685 23.4721 9.36685C23.3295 9.64597 23.1282 9.89269 22.8787 10.099L22.8792 10.0996ZM9.77475 18.4516C10.9617 18.8939 12.8775 19.3663 15.3799 19.1725C16.2582 19.1043 16.9199 18.795 17.4008 18.2277C18.4844 16.9492 18.3769 14.669 18.3184 14.0005C18.282 13.5895 18.3479 13.1853 18.502 12.8181C18.2513 12.6123 18.0506 12.3656 17.9079 12.087C17.6828 11.6459 17.1894 11.4213 16.7079 11.5407C16.4498 11.6044 16.2264 11.7618 16.0791 11.9841L16.0439 12.0364C15.8898 12.2683 15.7301 12.5082 15.5516 12.7459C14.314 14.3859 12.7195 15.5286 11.5882 16.2028C12.0344 16.4637 12.5108 16.707 12.886 16.8161C13.3584 16.9543 13.8331 16.973 14.3373 16.8707C14.924 16.753 15.7187 16.4273 15.8461 14.9714C15.8887 14.4786 16.323 14.1125 16.8142 14.158C17.3065 14.2012 17.6703 14.6343 17.6277 15.1266C17.4634 17.0072 16.3929 18.2822 14.6904 18.6239C13.9076 18.7819 13.1322 18.7512 12.3846 18.5324C11.8929 18.3891 11.3437 18.1208 10.8452 17.8394C10.4217 18.0793 10.0687 18.2822 9.77532 18.4516H9.77475Z" fill="white"/>
</svg>
