<svg width="50" height="50" viewBox="0 0 50 50" fill="none" xmlns="http://www.w3.org/2000/svg">
<g clip-path="url(#clip0)">
<path d="M25.0002 0C20.9943 0 17.7266 3.25787 17.7266 7.25394C17.7266 11.25 20.9943 14.5177 25.0002 14.5177C29.0061 14.5177 32.2738 11.2598 32.2738 7.26378C32.2738 3.26772 29.0061 0 25.0002 0ZM25.0002 12.9134C21.8801 12.9134 19.3506 10.3839 19.3506 7.26378C19.3506 4.1437 21.8801 1.61417 25.0002 1.61417C28.1203 1.61417 30.6498 4.1437 30.6498 7.26378C30.6498 10.374 28.1104 12.9134 25.0002 12.9134Z" fill="#D46229"/>
<path d="M28.2284 16.132H21.7619C17.756 16.132 14.4883 19.3898 14.4883 23.3859V35.4824H17.7166V50.0001H32.254V35.4824H35.4824V23.3859H35.5021C35.5021 19.38 32.2442 16.132 28.2284 16.132ZM33.8977 33.8682H33.8879H30.6595V48.3859H25.817V37.0965H24.2028V48.3859H19.3603V33.8682H16.132V23.3859C16.132 20.2757 18.6714 17.7363 21.7816 17.7363H28.2481C31.3682 17.7363 33.8977 20.2658 33.8977 23.3859V33.8682Z" fill="#D46229"/>
<path d="M8.84726 8.86804C5.70749 8.86804 3.14844 11.4271 3.14844 14.557C3.14844 17.6968 5.70749 20.246 8.84726 20.246C11.987 20.246 14.5461 17.6968 14.5461 14.557C14.5461 11.4173 11.987 8.86804 8.84726 8.86804ZM8.84726 18.6318C6.59332 18.6318 4.76261 16.8011 4.76261 14.557C4.76261 12.3129 6.59332 10.4822 8.84726 10.4822C11.1012 10.4822 12.9319 12.3129 12.9319 14.557C12.9319 16.8011 11.1012 18.6318 8.84726 18.6318Z" fill="#D46229"/>
<path d="M12.8839 37.0964V48.3857H9.6752V40.3247H8.06102V48.3857H4.04528V37.0964H1.67323L1.61417 27.7854C1.61417 25.3247 3.66142 23.3267 6.1811 23.3267H12.8248V21.7125H6.1811C2.77559 21.7224 0 24.4487 0 27.7952L0.0688976 38.7105H2.4311V49.9999H14.498V38.7105H16.1122V37.0964H12.8839Z" fill="#D46229"/>
<path d="M41.1519 8.86804C38.0122 8.86804 35.4531 11.4173 35.4531 14.557C35.4531 17.6968 38.0122 20.246 41.1519 20.246C44.2917 20.246 46.8508 17.6968 46.8508 14.557C46.8508 11.4173 44.2917 8.86804 41.1519 8.86804ZM41.1519 18.6318C38.898 18.6318 37.0673 16.8011 37.0673 14.557C37.0771 12.3129 38.9078 10.4822 41.1519 10.4822C43.4059 10.4822 45.2366 12.3129 45.2366 14.557C45.2366 16.8011 43.4059 18.6318 41.1519 18.6318Z" fill="#D46229"/>
<path d="M43.8178 21.7225H37.1151V23.3367H43.8178C46.3375 23.3367 48.3848 25.3347 48.3848 27.7855L48.3257 37.0965H45.9536V48.3859H41.9379V40.3249H40.3237V48.3859H37.1151V37.0965H33.8867V38.7107H35.5009V50.0001H47.5678V38.7107H49.93L49.9989 27.7954C49.9989 24.4489 47.2233 21.7225 43.8178 21.7225Z" fill="#D46229"/>
</g>
<defs>
<clipPath id="clip0">
<rect width="50" height="50" fill="white"/>
</clipPath>
</defs>
</svg>
