<svg width="20" height="20" viewBox="0 0 20 20" fill="none" xmlns="http://www.w3.org/2000/svg">
<path d="M19.9477 7.67117C19.816 7.2662 19.4568 6.97948 19.0335 6.94118L13.2601 6.41703L10.9784 1.07515C10.81 0.682682 10.4267 0.429382 10 0.429382C9.57338 0.429382 9.18992 0.682682 9.02253 1.07515L6.74085 6.41703L0.96652 6.94118C0.543234 6.98024 0.184799 7.26696 0.0523506 7.67117C-0.0793349 8.07615 0.0422796 8.52034 0.362414 8.8011L4.72665 12.6279L3.43986 18.2954C3.34571 18.7122 3.50746 19.1431 3.85323 19.393C4.03908 19.5281 4.25744 19.5955 4.47656 19.5955C4.66485 19.5955 4.8533 19.5455 5.02161 19.4447L10 16.468L14.9775 19.4447C15.3427 19.6629 15.8018 19.643 16.1468 19.393C16.4926 19.1431 16.6543 18.7122 16.5602 18.2954L15.2734 12.6279L19.6376 8.8011C19.9576 8.52034 20.0794 8.07706 19.9477 7.67117Z" fill="#F27848"/>
</svg>
