<svg width="50" height="50" viewBox="0 0 50 50" fill="none" xmlns="http://www.w3.org/2000/svg">
<path d="M28.332 46.663C38.4564 46.663 46.6639 38.4555 46.6639 28.3311C46.6639 18.2067 38.4564 9.99915 28.332 9.99915C18.2075 9.99915 10 18.2067 10 28.3311C10.0115 38.4507 18.2122 46.6516 28.332 46.663ZM14.1664 27.4978H11.709C12.1434 18.9638 18.9646 12.1425 27.4987 11.7082V14.1655C27.4987 14.6257 27.8718 14.9988 28.332 14.9988C28.7921 14.9988 29.1652 14.6257 29.1652 14.1655V11.7082C37.6993 12.1425 44.5205 18.9638 44.9549 27.4978H41.6643C41.2041 27.4978 40.831 27.8709 40.831 28.3311C40.831 28.7913 41.2041 29.1644 41.6643 29.1644H44.9549C44.5205 37.6983 37.6993 44.5197 29.1652 44.954V42.4967C29.1652 42.0365 28.7921 41.6634 28.332 41.6634C27.8718 41.6634 27.4987 42.0365 27.4987 42.4967V44.954C18.9647 44.5197 12.1434 37.6984 11.709 29.1644H14.1664C14.6265 29.1644 14.9996 28.7913 14.9996 28.3311C14.9996 27.8709 14.6265 27.4978 14.1664 27.4978Z" fill="#D46229"/>
<path d="M47.094 17.5131C46.8456 17.0827 46.5824 16.661 46.3049 16.2488L48.3623 14.1914C48.6875 13.866 48.6875 13.3386 48.3623 13.0132L43.6543 8.30521C43.3289 7.97992 42.8014 7.97992 42.476 8.30521L40.4154 10.3592C37.0821 8.10877 33.1853 6.83667 29.1662 6.687V1.66654H34.9991C35.4593 1.66654 35.8324 1.29344 35.8324 0.833271C35.8324 0.373097 35.4593 0 34.9991 0H21.6668C21.2066 0 20.8335 0.373097 20.8335 0.833271C20.8335 1.29344 21.2066 1.66654 21.6668 1.66654H27.4997V6.6945C20.0681 6.97823 13.3028 11.0581 9.58433 17.4987H5.00134C4.54117 17.4987 4.16807 17.8718 4.16807 18.332C4.16807 18.7921 4.54117 19.1652 5.00134 19.1652H10.001C10.0226 19.1652 10.041 19.1544 10.0626 19.1527C10.3629 19.1566 10.6414 18.997 10.7901 18.7361C16.0917 9.04682 28.2441 5.4898 37.9335 10.7913C47.6228 16.0928 51.1796 28.2454 45.8782 37.9347C40.5766 47.6239 28.4242 51.181 18.7348 45.8795C15.3817 44.0448 12.6246 41.2877 10.79 37.9347C10.6428 37.6727 10.3647 37.5115 10.0642 37.5139C10.0425 37.5139 10.0234 37.5014 10.0009 37.5014H5.00124C4.54107 37.5014 4.16797 37.8745 4.16797 38.3346C4.16797 38.7948 4.54107 39.1679 5.00124 39.1679H9.58423C15.5641 49.5259 28.8085 53.0752 39.1665 47.0953C49.5246 41.1155 53.0738 27.871 47.094 17.5131ZM41.777 11.3606L43.065 10.0726L46.5948 13.6023L45.3049 14.8922C44.2675 13.5844 43.0838 12.3995 41.777 11.3606Z" fill="#D46229"/>
<path d="M8.33271 28.3312C8.33271 27.871 7.95961 27.4979 7.49944 27.4979H0.833271C0.373097 27.4979 0 27.871 0 28.3312C0 28.7914 0.373097 29.1645 0.833271 29.1645H7.49944C7.95961 29.1645 8.33271 28.7914 8.33271 28.3312Z" fill="#D46229"/>
<path d="M2.49343 24.1649H8.32632C8.7865 24.1649 9.15959 23.7919 9.15959 23.3317C9.15959 22.8715 8.7865 22.4984 8.32632 22.4984H2.49343C2.03325 22.4984 1.66016 22.8715 1.66016 23.3317C1.66016 23.7919 2.03315 24.1649 2.49343 24.1649Z" fill="#D46229"/>
<path d="M9.15959 33.3308C9.15959 32.8707 8.7865 32.4976 8.32632 32.4976H2.49343C2.03325 32.4976 1.66016 32.8707 1.66016 33.3308C1.66016 33.791 2.03325 34.1641 2.49343 34.1641H8.32632C8.7865 34.1641 9.15959 33.791 9.15959 33.3308Z" fill="#D46229"/>
<path d="M26.0778 33.9199C26.4032 34.2452 26.9307 34.2452 27.2561 33.9199L38.8386 22.3374C39.1583 22.0064 39.1492 21.4789 38.8181 21.1592C38.4953 20.8473 37.9833 20.8473 37.6603 21.1592L26.667 32.1525L21.709 27.1946C21.378 26.8749 20.8504 26.884 20.5308 27.215C20.2189 27.5379 20.2189 28.0498 20.5308 28.3728L26.0778 33.9199Z" fill="#D46229"/>
</svg>
