<svg width="24" height="24" viewBox="0 0 24 24" fill="none" xmlns="http://www.w3.org/2000/svg">
<path d="M13.6001 22.3983C18.4599 22.3983 22.3995 18.4587 22.3995 13.599C22.3995 8.73925 18.4599 4.79964 13.6001 4.79964C8.74039 4.79964 4.80078 8.73925 4.80078 13.599C4.80628 18.4564 8.74264 22.3928 13.6001 22.3983ZM6.80063 13.199H5.62112C5.8296 9.10267 9.10381 5.82847 13.2002 5.61998V6.79949C13.2002 7.02038 13.3792 7.19946 13.6001 7.19946C13.821 7.19946 14.0001 7.02038 14.0001 6.79949V5.61998C18.0964 5.82847 21.3706 9.10267 21.5791 13.199H19.9996C19.7788 13.199 19.5997 13.3781 19.5997 13.599C19.5997 13.8199 19.7788 13.999 19.9996 13.999H21.5791C21.3706 18.0952 18.0964 21.3695 14.0001 21.578V20.3985C14.0001 20.1776 13.821 19.9985 13.6001 19.9985C13.3792 19.9985 13.2002 20.1776 13.2002 20.3985V21.578C9.10386 21.3695 5.8296 18.0953 5.62112 13.999H6.80063C7.02151 13.999 7.2006 13.8199 7.2006 13.599C7.2006 13.3781 7.02151 13.199 6.80063 13.199Z" fill="#73645C"/>
<path d="M22.6045 8.40627C22.4853 8.19969 22.3589 7.9973 22.2257 7.79942L23.2133 6.81189C23.3694 6.6557 23.3694 6.40252 23.2133 6.24633L20.9534 3.9865C20.7972 3.83036 20.5441 3.83036 20.3879 3.9865L19.3987 4.97243C17.7988 3.89221 15.9283 3.2816 13.9991 3.20976V0.79994H16.7989C17.0198 0.79994 17.1989 0.620853 17.1989 0.39997C17.1989 0.179087 17.0198 0 16.7989 0H10.3994C10.1785 0 9.99945 0.179087 9.99945 0.39997C9.99945 0.620853 10.1785 0.79994 10.3994 0.79994H13.1992V3.21336C9.63208 3.34955 6.38472 5.3079 4.59985 8.39937H2.40002C2.17914 8.39937 2.00005 8.57846 2.00005 8.79934C2.00005 9.02022 2.17914 9.19931 2.40002 9.19931H4.79984C4.81024 9.19931 4.81904 9.19411 4.82944 9.19331C4.97358 9.19516 5.10727 9.11857 5.17861 8.99333C7.72337 4.34247 13.5565 2.6351 18.2074 5.17981C22.8583 7.72452 24.5656 13.5578 22.0209 18.2086C19.4761 22.8595 13.643 24.5669 8.99207 22.0221C7.3826 21.1415 6.05919 19.8181 5.17856 18.2086C5.10792 18.0829 4.97443 18.0055 4.83019 18.0066C4.81979 18.0066 4.81059 18.0007 4.79979 18.0007H2.39997C2.17909 18.0007 2 18.1797 2 18.4006C2 18.6215 2.17909 18.8006 2.39997 18.8006H4.5998C7.47014 23.7724 13.8275 25.4761 18.7993 22.6058C23.7712 19.7354 25.4748 13.3781 22.6045 8.40627ZM20.0523 5.45309L20.6706 4.83484L22.3649 6.52911L21.7457 7.14826C21.2478 6.52051 20.6796 5.95175 20.0523 5.45309Z" fill="#73645C"/>
<path d="M3.9997 13.599C3.9997 13.3781 3.82061 13.199 3.59973 13.199H0.39997C0.179087 13.199 0 13.3781 0 13.599C0 13.8199 0.179087 13.9989 0.39997 13.9989H3.59973C3.82061 13.9989 3.9997 13.8199 3.9997 13.599Z" fill="#73645C"/>
<path d="M1.19684 11.5991H3.99663C4.21752 11.5991 4.39661 11.42 4.39661 11.1992C4.39661 10.9783 4.21752 10.7992 3.99663 10.7992H1.19684C0.975962 10.7992 0.796875 10.9783 0.796875 11.1992C0.796875 11.42 0.975912 11.5991 1.19684 11.5991Z" fill="#73645C"/>
<path d="M4.39661 15.9988C4.39661 15.7779 4.21752 15.5988 3.99663 15.5988H1.19684C0.975962 15.5988 0.796875 15.7779 0.796875 15.9988C0.796875 16.2197 0.975962 16.3988 1.19684 16.3988H3.99663C4.21752 16.3988 4.39661 16.2197 4.39661 15.9988Z" fill="#73645C"/>
<path d="M12.5171 16.2816C12.6732 16.4377 12.9264 16.4377 13.0826 16.2816L18.6422 10.722C18.7957 10.5631 18.7913 10.3099 18.6324 10.1564C18.4774 10.0067 18.2317 10.0067 18.0766 10.1564L12.7998 15.4332L10.42 13.0534C10.2611 12.9 10.0079 12.9043 9.85445 13.0632C9.70477 13.2182 9.70477 13.4639 9.85445 13.619L12.5171 16.2816Z" fill="#73645C"/>
</svg>
