<svg width="16" height="16" viewBox="0 0 16 16" fill="none" xmlns="http://www.w3.org/2000/svg">
<path d="M6.59303 0C8.41365 0 10.0612 0.735187 11.255 1.92188C12.4474 3.10858 13.1861 4.74975 13.1861 6.56173C13.1861 8.16875 12.6056 9.6406 11.6415 10.7813L15.7573 14.9443C15.9991 15.1894 15.9961 15.5815 15.7499 15.8221C15.5036 16.0627 15.1097 16.0583 14.8679 15.8147L10.7521 11.6531C9.61795 12.5724 8.17041 13.1235 6.59303 13.1235C4.7739 13.1235 3.1249 12.3883 1.93105 11.2016C0.738694 10.0149 0 8.37371 0 6.56173C0 4.75124 0.738694 3.11006 1.93105 1.92188C3.12341 0.735187 4.77241 0 6.59303 0V0ZM10.3701 2.80262C9.40306 1.84168 8.06893 1.24611 6.59303 1.24611C5.11863 1.24611 3.78301 1.84168 2.81599 2.80262C1.84897 3.76505 1.25205 5.09433 1.25205 6.56173C1.25205 8.02913 1.85047 9.35841 2.81599 10.3208C3.78301 11.2818 5.11863 11.8774 6.59303 11.8774C8.06744 11.8774 9.40306 11.2818 10.3701 10.3208C11.3371 9.35841 11.934 8.02913 11.934 6.56173C11.934 5.09433 11.3356 3.76505 10.3701 2.80262Z" fill="#5E2F26" fill-opacity="0.4"/>
</svg>
