<svg width="12" height="15" viewBox="0 0 12 15" fill="none" xmlns="http://www.w3.org/2000/svg">
<g clip-path="url(#clip0)">
<path d="M6 0C2.6915 0 0 2.69164 0 6C0 7.59955 0.923538 9.47649 2.74508 11.5785C4.03516 13.0673 5.31073 14.1282 5.36445 14.1727L6 14.699L6.63555 14.1727C6.68927 14.1284 7.9647 13.0673 9.25478 11.5785C11.0763 9.47635 11.9999 7.59955 11.9999 6C12 2.69164 9.30836 0 6 0V0ZM6 7.84833C4.98088 7.84833 4.15167 7.01911 4.15167 6C4.15167 4.98074 4.98088 4.15153 6 4.15153C7.01925 4.15153 7.84833 4.98074 7.84833 6C7.84833 7.01911 7.01911 7.84833 6 7.84833Z" fill="#4479BC"/>
</g>
<defs>
<clipPath id="clip0">
<rect width="12" height="14.6991" fill="white"/>
</clipPath>
</defs>
</svg>
