<svg width="60" height="60" viewBox="0 0 60 60" fill="none" xmlns="http://www.w3.org/2000/svg">
<path d="M30 60C13.4314 60 0 46.5686 0 30C0 13.4314 13.4314 0 30 0C46.5686 0 60 13.4314 60 30C59.9803 46.5606 46.5606 59.9804 30.0019 60H30ZM30 1.81816C14.4356 1.81816 1.81816 14.4356 1.81816 30C1.81816 45.5644 14.4356 58.1818 30 58.1818C45.5644 58.1818 58.1818 45.5644 58.1818 30C58.1638 14.4428 45.5572 1.83615 30.0018 1.81816H30.0001H30Z" fill="#F19874"/>
<path d="M44.8382 36.5536C44.8449 36.6778 44.8487 36.8232 44.8487 36.9695C44.8487 41.5359 41.1469 45.2377 36.5805 45.2377C36.4342 45.2377 36.2888 45.2339 36.1443 45.2264L36.1646 45.2272C34.1031 45.3444 32.0612 45.3249 29.9998 45.3249C27.9383 45.3249 25.8965 45.3444 23.835 45.2272C23.7108 45.2339 23.5654 45.2377 23.4191 45.2377C18.8527 45.2377 15.1509 41.5359 15.1509 36.9695C15.1509 36.8232 15.1547 36.6778 15.1622 36.5333L15.1614 36.5536C15.0442 34.4921 15.0637 32.4502 15.0637 30.3888C15.0637 28.3274 15.0442 26.2855 15.1614 24.224C15.1547 24.0998 15.1509 23.9544 15.1509 23.8081C15.1509 19.2417 18.8527 15.5399 23.4191 15.5399C23.5654 15.5399 23.7108 15.5438 23.8552 15.5513L23.835 15.5504C25.8965 15.4332 27.9383 15.4528 29.9998 15.4528C32.0612 15.4528 34.1031 15.4332 36.1646 15.5504C36.2888 15.5438 36.4342 15.5399 36.5805 15.5399C41.1469 15.5399 44.8487 19.2417 44.8487 23.8081C44.8487 23.9544 44.8449 24.0998 44.8374 24.2443L44.8382 24.224C44.9554 26.2855 44.9359 28.3274 44.9359 30.3888C44.9359 32.4502 44.9554 34.4921 44.8382 36.5536ZM21.1894 18.7393C19.8896 19.2674 18.8784 20.2786 18.3625 21.5444L18.3503 21.5784C17.5726 23.544 17.7484 28.2101 17.7484 30.3887C17.7484 32.5674 17.5726 37.2335 18.3503 39.1991C18.8785 40.4989 19.8897 41.5101 21.1554 42.026L21.1894 42.0382C23.1549 42.8159 27.8212 42.6402 29.9998 42.6402C32.1784 42.6402 36.8446 42.8159 38.8102 42.0382C40.11 41.5101 41.1212 40.4988 41.637 39.2331L41.6493 39.1991C42.427 37.2335 42.2512 32.5674 42.2512 30.3887C42.2512 28.2101 42.427 23.544 41.6493 21.5784C41.1211 20.2786 40.1099 19.2674 38.8442 18.7515L38.8102 18.7393C36.8446 17.9616 32.1784 18.1373 29.9998 18.1373C27.8212 18.1373 23.155 17.9616 21.1895 18.7393H21.1894ZM29.9998 38.0522C25.7674 38.0522 22.3364 34.6211 22.3364 30.3888C22.3364 26.1565 25.7674 22.7255 29.9998 22.7255C34.2321 22.7255 37.6632 26.1565 37.6632 30.3888C37.6632 30.3917 37.6632 30.3952 37.6632 30.3986C37.6632 34.6255 34.2365 38.0522 30.0096 38.0522C30.0062 38.0522 30.0027 38.0522 29.9993 38.0522H29.9998ZM29.9998 25.4101C27.2502 25.4101 25.0211 27.6391 25.0211 30.3888C25.0211 33.1385 27.2501 35.3675 29.9998 35.3675C32.7494 35.3675 34.9785 33.1385 34.9785 30.3888C34.9725 27.6415 32.7471 25.4161 30.0004 25.4101H29.9998ZM37.9739 24.2045C37.9736 24.2045 37.9733 24.2045 37.973 24.2045C36.985 24.2045 36.1841 23.4036 36.1841 22.4156C36.1841 21.4277 36.985 20.6268 37.973 20.6268C38.9607 20.6268 39.7614 21.4271 39.7619 22.4147V22.4148C39.7619 22.4163 39.7619 22.4181 39.7619 22.42C39.7619 23.4056 38.9629 24.2045 37.9773 24.2045C37.9761 24.2045 37.9749 24.2045 37.9737 24.2045H37.9739V24.2045Z" fill="#F19874"/>
</svg>
