<svg width="29" height="19" viewBox="0 0 29 19" fill="none" xmlns="http://www.w3.org/2000/svg">
<g clip-path="url(#clip0)">
<path fill-rule="evenodd" clip-rule="evenodd" d="M0.507971 11.4851C0.788482 11.4851 1.01591 11.7088 1.01591 11.9846V15.4846L1.82403 15.4845C2.02321 13.7521 3.61279 12.5065 5.37443 12.7023C6.86178 12.8676 8.03552 14.0219 8.2037 15.4845H18.7937V0.999268L1.01588 0.999283V9.55803C1.01588 9.83387 0.788452 10.0575 0.50794 10.0575C0.227429 10.0575 0 9.83387 0 9.55803V0.499786C0 0.223938 0.227429 0.000289917 0.50794 0.000289917L19.3016 0.000304991C19.5821 0.000304991 19.8095 0.223953 19.8095 0.499801V0.999298L25.6264 0.999283C26.9015 1.00091 27.9348 2.017 27.9365 3.27098V3.99625C27.9365 4.27209 27.7091 4.49574 27.4286 4.49574L26.8378 4.49573L27.2254 9.07359C28.2397 9.3332 28.9488 10.2321 28.9524 11.2628V15.4845C28.9524 15.7604 28.7249 15.984 28.4444 15.984H27.4158C27.2766 17.7702 25.6912 19.1072 23.8748 18.9703C22.252 18.848 20.9625 17.5799 20.8381 15.984C20.8335 15.984 20.8299 15.9865 20.8254 15.9865H19.8095C19.8095 16.2624 19.5821 16.486 19.3016 16.486H8.15747C7.79563 18.1934 6.09481 19.2889 4.35861 18.9331C3.10802 18.6768 2.13086 17.7159 1.87024 16.486H0.507956C0.227444 16.486 1.53285e-05 16.2624 1.53285e-05 15.9865V11.9846C1.53285e-05 11.7087 0.227444 11.4851 0.507956 11.4851H0.507971ZM24.127 17.982C25.3893 17.982 26.4127 16.9757 26.4127 15.7343C26.4127 14.4929 25.3893 13.4866 24.127 13.4866C22.8646 13.4866 21.8413 14.4929 21.8413 15.7343C21.8427 16.9751 22.8652 17.9806 24.127 17.982ZM19.8095 14.9851H20.8254C20.8552 14.9881 20.8846 14.9939 20.9133 15.0025C21.3218 13.2572 23.0917 12.1681 24.8664 12.5698C26.0902 12.8468 27.0477 13.7832 27.3361 14.9851H27.9365V11.2628C27.9357 10.5603 27.3567 9.99094 26.6423 9.99014H19.8095V14.9851H19.8095ZM19.8095 8.99116H26.1994L25.8184 4.49573H19.8095V8.99116ZM19.8095 3.49673H26.9206V3.27096C26.9198 2.56842 26.3408 1.99906 25.6264 1.99826H19.8095V3.49673ZM2.82193 15.9641C2.8872 17.1068 3.84955 17.9999 5.01335 17.998H5.01387C6.07959 17.9957 6.98955 17.2409 7.17159 16.2083C7.08257 16.0553 7.09274 15.8653 7.19749 15.7223C7.12962 14.5341 6.09508 13.625 4.88677 13.6917C3.67852 13.7585 2.75401 14.7758 2.82193 15.9641Z" fill="#73645C"/>
</g>
<defs>
<clipPath id="clip0">
<rect width="28.9524" height="19" fill="white"/>
</clipPath>
</defs>
</svg>
