<svg width="24" height="23" viewBox="0 0 24 23" fill="none" xmlns="http://www.w3.org/2000/svg">
<path d="M22.2101 14.6792C21.2628 14.6792 20.49 14.9394 20.0539 15.1285C20.0554 14.5355 20.0554 14.1769 20.0554 14.145C20.0554 14.0075 20.1346 14.0247 20.1346 14.0247C20.3248 14.0075 20.4781 13.8252 20.4781 13.6697C20.4781 13.5173 20.3889 13.4911 20.2931 13.5001C20.209 13.5072 20.181 13.5001 20.181 13.5001H12.0921H11.2258H3.13652C3.13652 13.5001 3.11015 13.5072 3.02631 13.5001C2.9296 13.4911 2.83948 13.5176 2.83948 13.6697C2.83948 13.8252 2.99397 14.0075 3.18394 14.0247C3.18394 14.0247 3.26244 14.0075 3.26244 14.145C3.26244 14.1769 3.26244 14.5355 3.26401 15.1285C2.82786 14.9394 2.05511 14.6792 1.10558 14.6792C-0.386545 14.6792 -0.199716 15.5986 0.672573 15.5986C1.54235 15.5986 1.97693 15.7823 2.3509 16.1944C2.60273 16.4732 3.04923 16.5423 3.31362 16.5601C3.50265 18.5158 4.08606 20.5116 4.08606 20.5116C4.08606 20.5116 4.31685 21.0546 4.55172 21.3746C4.7128 21.5927 5.13701 22.3222 7.02854 22.5999C8.17056 22.7721 8.72194 22.857 11.6581 22.8584C14.5937 22.857 15.146 22.7721 16.2884 22.5999C18.1802 22.3225 18.6035 21.5927 18.7643 21.3746C18.9998 21.0546 19.2302 20.5116 19.2302 20.5116C19.2302 20.5116 19.8149 18.5158 20.0011 16.5601C20.2667 16.5423 20.7142 16.4732 20.9644 16.1944C21.3391 15.7821 21.7758 15.5986 22.645 15.5986C23.5163 15.5986 23.7035 14.6792 22.2088 14.6792H22.2101Z" fill="#DAD0C7"/>
<path d="M9.82956 8.48385C7.4799 8.32214 6.05434 6.56455 6.05434 4.72483C6.05434 2.80185 7.61241 0.953669 10.148 0.937865H10.1825V0.250122H10.141C6.71751 0.269312 4.67432 2.49707 4.67432 4.72483C4.67432 6.88344 6.59317 9.02174 9.82956 9.16905V8.48357V8.48385Z" fill="#DAD0C7"/>
<path d="M14.2169 4.70056C13.9007 4.87722 13.6382 5.07053 13.3644 5.35359C13.2759 5.44333 12.8444 5.93607 12.9437 6.76463C12.9628 6.92182 13.1186 7.07506 13.2642 7.08042C13.4417 7.10893 13.8301 6.82389 14.0631 5.7738C14.1142 5.54888 14.2006 5.16564 14.2169 4.70084V4.70056ZM10.0998 0.250122C11.3372 0.266208 12.527 0.667227 13.4059 1.3973C14.173 2.03622 14.6393 2.82866 14.8019 3.76362C16.2538 3.25932 17.5519 3.74076 18.2402 4.50188C19.0682 5.4168 19.0575 6.64356 18.2157 7.55764C17.252 8.60661 15.9006 9.27262 14.8145 9.80656C13.951 10.2324 13.1346 10.6357 13.0865 10.989C13.0661 11.1507 13.2055 11.3553 13.5063 11.6011L13.7484 11.8026L13.3038 12.2358L13.0611 12.0377C12.5907 11.6508 12.3847 11.2853 12.4337 10.9187C12.5226 10.264 13.3949 9.83478 14.4976 9.28843C15.5348 8.77876 16.8256 8.14237 17.7111 7.18145C18.4942 6.3289 18.211 5.40636 17.7309 4.87581C17.2112 4.30095 16.1612 3.84829 14.8647 4.38053C14.8801 4.85267 14.828 5.35669 14.7086 5.88894C14.3548 7.47777 13.6357 7.69028 13.2372 7.67221C12.7606 7.65331 12.3734 7.27853 12.2893 6.82502C12.082 5.70324 12.7009 5.13911 12.8689 4.96555C13.2803 4.538 13.6768 4.28458 14.1874 4.03031C14.0929 3.31378 13.7761 2.51118 12.9587 1.83106C12.083 1.10239 11.0587 0.856307 10.0552 0.934761L10.1001 0.250122L10.0998 0.250122Z" fill="#DAD0C7"/>
</svg>
