<svg width="22" height="22" viewBox="0 0 22 22" fill="none" xmlns="http://www.w3.org/2000/svg">
<path d="M3.03446 5.52876H6.09402C6.12521 4.22497 6.67027 3.043 7.53353 2.17998C8.42263 1.29089 9.64967 0.739014 11 0.739014C12.3503 0.739014 13.5776 1.29089 14.4665 2.17998C15.3297 3.043 15.8748 4.22497 15.906 5.52876H19.8018V18.6624L17.2029 21.261H4.79681L2.19824 18.6624V5.52876H3.03446ZM7.7672 5.52876H14.2328C14.2021 4.68645 13.8447 3.92333 13.284 3.36244C12.6973 2.77572 11.8886 2.41145 11 2.41145C10.1114 2.41145 9.3027 2.77572 8.71598 3.36244C8.15534 3.92308 7.7979 4.68645 7.7672 5.52876ZM6.09256 9.82048V7.2012H3.87093V17.9697L5.48952 19.5883H16.5107L18.1293 17.9697V7.2012H15.9077V9.82048H14.2352V7.2012H7.76525V9.82048H6.09281H6.09256Z" fill="#5E2F26"/>
</svg>
