<svg width="18" height="18" viewBox="0 0 18 18" fill="none" xmlns="http://www.w3.org/2000/svg">
<path d="M7.38222 0C9.42077 0 11.2655 0.827116 12.6022 2.1622C13.9373 3.49728 14.7644 5.34367 14.7644 7.38222C14.7644 9.19018 14.1145 10.8461 13.035 12.1294L17.6435 16.813C17.9142 17.0887 17.9108 17.5299 17.6351 17.8005C17.3594 18.0712 16.9183 18.0662 16.6476 17.7922L12.0391 13.1102C10.7692 14.1445 9.14841 14.7644 7.38222 14.7644C5.34534 14.7644 3.49895 13.9373 2.1622 12.6022C0.827117 11.2672 0 9.42077 0 7.38222C0 5.34534 0.827117 3.49895 2.1622 2.1622C3.49728 0.827116 5.34367 0 7.38222 0V0ZM11.6114 3.15307C10.5286 2.07197 9.03478 1.40192 7.38222 1.40192C5.73133 1.40192 4.23584 2.07197 3.15307 3.15307C2.0703 4.23584 1.40192 5.73133 1.40192 7.38222C1.40192 9.03311 2.07197 10.5286 3.15307 11.6114C4.23584 12.6925 5.73133 13.3625 7.38222 13.3625C9.03311 13.3625 10.5286 12.6925 11.6114 11.6114C12.6941 10.5286 13.3625 9.03311 13.3625 7.38222C13.3625 5.73133 12.6925 4.23584 11.6114 3.15307Z" fill="#5E2F26"/>
</svg>
