<svg width="26" height="26" viewBox="0 0 26 26" fill="none" xmlns="http://www.w3.org/2000/svg">
<rect width="26" height="26" rx="3" fill="#6D3939"/>
<path d="M17.8303 13.7343C17.5609 13.3843 17.638 13.2286 17.8303 12.9157C17.8338 12.9121 20.0582 9.75071 20.2874 8.67857L20.2888 8.67786C20.4027 8.28714 20.2888 8 19.738 8H17.9158C17.4519 8 17.238 8.24643 17.1234 8.52214C17.1234 8.52214 16.1956 10.8064 14.883 12.2871C14.4594 12.715 14.2635 12.8521 14.0323 12.8521C13.9184 12.8521 13.7413 12.715 13.7413 12.3243V8.67786C13.7413 8.20929 13.6114 8 13.2274 8H10.362C10.071 8 9.89812 8.21857 9.89812 8.42214C9.89812 8.86643 10.5544 8.96857 10.6225 10.2186V12.9307C10.6225 13.525 10.5176 13.6343 10.2849 13.6343C9.66547 13.6343 8.16195 11.3407 7.27095 8.71571C7.09108 8.20643 6.91538 8.00071 6.448 8.00071H4.62502C4.10486 8.00071 4 8.24714 4 8.52286C4 9.01 4.61947 11.4321 6.88066 14.6321C8.38765 16.8164 10.5099 18 12.4406 18C13.601 18 13.7427 17.7371 13.7427 17.285C13.7427 15.1979 13.6378 15.0007 14.2191 15.0007C14.4886 15.0007 14.9525 15.1379 16.0358 16.1914C17.2741 17.4407 17.4776 18 18.1706 18H19.9929C20.5124 18 20.7756 17.7371 20.6242 17.2186C20.2776 16.1279 17.9359 13.8843 17.8303 13.7343Z" fill="white"/>
</svg>
