<svg width="24" height="24" viewBox="0 0 24 24" fill="none" xmlns="http://www.w3.org/2000/svg">
<g clip-path="url(#clip0)">
<path d="M19.1252 3.14208C19.0377 3.05401 18.9473 2.96626 18.8566 2.88122C18.7147 2.74829 18.4919 2.7556 18.359 2.89744C18.2261 3.03933 18.2333 3.26213 18.3752 3.39507C18.4599 3.47438 18.5443 3.55627 18.626 3.63844C19.6232 4.64148 20.3524 5.93959 20.7347 7.39244C21.1059 8.80314 21.1388 10.3007 20.83 11.7234C20.2936 14.1944 18.5187 16.0978 16.8022 17.9386C16.4278 18.3401 16.0406 18.7552 15.6745 19.1679C14.6468 20.3264 12.804 22.4219 12.0594 23.269C12.0397 23.2914 12.018 23.2955 11.9994 23.2959C11.9832 23.2958 11.96 23.291 11.9411 23.2688C11.1169 22.3009 10.2559 21.3397 9.42317 20.4102C9.05885 20.0035 8.68216 19.583 8.31396 19.1679C7.94777 18.7551 7.56063 18.34 7.18624 17.9385C5.46977 16.0978 3.6948 14.1944 3.15845 11.7236C2.84111 10.2613 2.90134 8.70648 3.33259 7.22715C3.7644 5.7459 4.54984 4.40415 5.60392 3.34702C7.30451 1.64147 9.63209 0.675986 11.9903 0.704533C13.578 0.722158 15.2039 1.21069 16.6922 2.11716C16.8583 2.21836 17.0749 2.16577 17.176 1.99964C17.2771 1.83357 17.2245 1.617 17.0585 1.51589C15.4621 0.543658 13.7123 0.0196411 11.9981 0.000516045C9.45181 -0.0265309 6.93911 1.01072 5.10536 2.84986C3.96817 3.99038 3.12142 5.43587 2.65665 7.03009C2.19264 8.62173 2.12823 10.2963 2.47042 11.8729C3.04783 14.533 4.88988 16.5084 6.67127 18.4187C7.04275 18.8171 7.42685 19.229 7.78723 19.6352C8.15655 20.0515 8.53381 20.4727 8.89873 20.88C9.72846 21.8063 10.5865 22.7641 11.405 23.7253C11.5521 23.8981 11.7667 23.9982 11.9938 23.9999C11.9959 24 11.9979 24 12 24C12.2253 24 12.4393 23.9032 12.5882 23.7338C13.3325 22.887 15.1744 20.7925 16.2011 19.6352C16.5614 19.229 16.9455 18.8171 17.317 18.4188C19.0985 16.5085 20.9406 14.5331 21.518 11.8728C22.2131 8.67095 21.2962 5.32557 19.1252 3.14208Z" fill="#73645C"/>
<path d="M11.9828 3.52801C8.54601 3.52801 5.75 6.32401 5.75 9.7608C5.75 11.1265 6.18359 12.4233 7.00386 13.5108C7.12091 13.6659 7.34164 13.6969 7.49689 13.5798C7.6521 13.4628 7.68303 13.242 7.56594 13.0868C6.83853 12.1225 6.45406 10.9723 6.45406 9.7608C6.45406 6.71223 8.93423 4.23202 11.9828 4.23202C15.0314 4.23202 17.5115 6.71223 17.5115 9.7608C17.5115 12.8094 15.0314 15.2895 11.9828 15.2895C10.9566 15.2895 9.95498 15.0064 9.08615 14.4709C8.92058 14.3689 8.70379 14.4204 8.60179 14.5858C8.49979 14.7514 8.55126 14.9682 8.71677 15.0703C9.6967 15.6743 10.8261 15.9935 11.9828 15.9935C15.4196 15.9935 18.2156 13.1975 18.2156 9.7608C18.2156 6.32401 15.4196 3.52801 11.9828 3.52801Z" fill="#73645C"/>
<path d="M15.4813 8.78059C15.4118 8.56661 15.2303 8.41361 15.0077 8.38131L13.2345 8.12359L12.4415 6.51686C12.3419 6.31511 12.1403 6.18981 11.9154 6.18981C11.6904 6.18981 11.4888 6.31515 11.3893 6.51686L10.5963 8.12359L8.82313 8.38131C8.60048 8.41361 8.41902 8.56661 8.34946 8.78059C8.27995 8.99458 8.33685 9.22502 8.49791 9.38205L9.78098 10.6328L9.47807 12.3987C9.44001 12.6205 9.52949 12.8404 9.71151 12.9726C9.81435 13.0474 9.93468 13.0853 10.0558 13.0853C10.1491 13.0853 10.2428 13.0628 10.3294 13.0173L11.9153 12.1835L13.5013 13.0173C13.7004 13.1219 13.9371 13.1049 14.1191 12.9727C14.3011 12.8405 14.3906 12.6206 14.3526 12.3988L14.0497 10.6328L15.3328 9.3821C15.494 9.22497 15.5508 8.99453 15.4813 8.78059ZM13.5142 10.1716C13.3758 10.3064 13.3127 10.5005 13.3454 10.6909L13.6185 12.2834L12.1884 11.5315C12.0174 11.4416 11.8133 11.4416 11.6423 11.5315L10.2122 12.2834L10.4854 10.691C10.518 10.5006 10.4549 10.3065 10.3166 10.1716L9.1596 9.04384L10.7585 8.81149C10.9497 8.78374 11.1149 8.66369 11.2003 8.49053L11.9153 7.04167L12.6304 8.49048C12.7159 8.66374 12.881 8.78374 13.0722 8.81149L14.6711 9.04384L13.5142 10.1716Z" fill="#73645C"/>
</g>
<defs>
<clipPath id="clip0">
<rect width="24" height="24" fill="white"/>
</clipPath>
</defs>
</svg>
