<svg width="26" height="26" viewBox="0 0 26 26" fill="none" xmlns="http://www.w3.org/2000/svg">
<path fill-rule="evenodd" clip-rule="evenodd" d="M5.04206 0.0961383C2.62898 0.443464 0.902893 1.91226 0.266136 4.16012C0.0377857 4.96628 0 5.69622 0 9.30323V12.8144H0.450626C1.26732 12.8144 3.65689 12.6928 4.69725 12.5982C7.67054 12.328 9.2937 11.7003 10.6003 10.3157C11.2427 9.63479 11.6327 8.98625 11.9645 8.04695C12.4547 6.65914 12.6737 4.85994 12.7945 1.22982L12.8354 0L9.22729 0.00649843C6.52649 0.0114177 5.47403 0.0339491 5.04206 0.0961383ZM13.204 1.36725C13.3673 6.81438 13.8715 8.78659 15.5281 10.4574C17.1701 12.1135 19.1309 12.6118 24.7091 12.7912L26 12.8327V9.34429C26 5.76842 25.9585 4.9528 25.7359 4.16012C25.2208 2.32524 23.9323 0.966729 22.1425 0.371557C21.1324 0.0356493 20.6097 0 16.6939 0H13.163L13.204 1.36725ZM25.514 13.1619C21.5245 13.2792 19.4898 13.5013 18.0783 13.9735C15.6175 14.7968 14.1066 16.6687 13.6111 19.5081C13.3857 20.7999 13.268 22.259 13.203 24.5688L13.1627 26L16.954 25.9778C21.0937 25.9537 21.2604 25.9412 22.2819 25.5795C23.8755 25.0151 25.0809 23.7772 25.6364 22.1342C25.9668 21.157 26.0057 20.5464 25.9866 16.6405L25.9696 13.1484L25.514 13.1619ZM0 16.678C0 20.1884 0.0287947 20.8302 0.223127 21.6496C0.66385 23.508 2.00097 24.9982 3.76648 25.5985C4.7772 25.9421 4.94049 25.9539 9.04508 25.9778L12.8356 26L12.794 24.7061C12.6196 19.2711 12.1406 17.2969 10.6035 15.6784C8.90505 13.8904 6.91958 13.3543 1.42277 13.1994L0 13.1594V16.678Z" fill="#6D3939"/>
</svg>
