<svg width="137" height="52" viewBox="0 0 137 52" fill="none" xmlns="http://www.w3.org/2000/svg">
<path d="M35.3047 41.9367H37.4275V45.5302H41.3538V41.9367H43.4766V51.0795H41.3538V47.3338H37.4275V51.0795H35.3047V41.9367ZM96.447 41.9367H101.941L101.4 43.7267H98.5702V45.5713H101.442V47.3613H98.5702V49.2897H101.914V51.0794H96.447V41.9366V41.9367ZM83.4891 48.7624C84.0993 49.1789 84.7932 49.4564 85.5976 49.4564C86.2219 49.4564 86.9021 49.2486 86.9021 48.6517C86.9021 47.1396 83.0172 47.3334 83.0172 44.5172C83.0172 43.1156 84.1411 41.8397 86.1666 41.8397C87.179 41.8397 88.026 42.0613 88.5807 42.3392V44.2395C87.7343 43.8238 86.9851 43.6012 86.2359 43.6012C85.723 43.6012 85.2789 43.7819 85.2789 44.3367C85.2789 45.7521 89.1637 45.5301 89.1637 48.4712C89.1637 50.164 87.6372 51.2184 85.6811 51.2184C84.5987 51.2184 83.4753 50.9271 82.6842 50.3582L83.4893 48.7624H83.4891ZM67.8533 49.5676C67.562 49.0542 67.4091 48.3741 67.4091 47.5835V41.9366H69.5324V47.4585C69.5324 47.9303 69.6292 48.3465 69.8097 48.6518C70.129 49.1791 70.711 49.4559 71.4746 49.4559C72.2376 49.4559 72.8205 49.1789 73.1394 48.6518C73.32 48.3465 73.4173 47.9303 73.4173 47.4585V41.9366H75.5392V47.5835C75.5392 48.3741 75.3871 49.0542 75.0959 49.5676C74.4577 50.7047 73.1809 51.2184 71.4746 51.2184C69.7679 51.2184 68.4915 50.7047 67.8533 49.5676ZM57.9335 46.5288C57.9335 44.5866 56.9207 43.6014 55.4775 43.6014C54.0348 43.6014 53.0216 44.5866 53.0216 46.5288C53.0216 48.471 54.0348 49.4562 55.4775 49.4562C56.9207 49.4562 57.9335 48.471 57.9335 46.5288ZM50.7605 46.5288C50.7605 43.7544 52.6889 41.8395 55.4775 41.8395C58.2663 41.8395 60.195 43.7545 60.195 46.5288C60.195 49.304 58.2663 51.2187 55.4775 51.2187C52.6889 51.2187 50.7605 49.304 50.7605 46.5288Z" fill="#5E2F26"/>
<path d="M123.234 23.7682C124.715 24.7775 126.398 25.451 128.35 25.451C129.865 25.451 131.514 24.9457 131.514 23.4989C131.514 19.8304 122.09 20.3012 122.09 13.4682C122.09 10.069 124.816 6.97266 129.73 6.97266C132.187 6.97266 134.24 7.51136 135.587 8.18434V12.7957C133.534 11.7856 131.716 11.2472 129.898 11.2472C128.653 11.2472 127.576 11.6848 127.576 13.0307C127.576 16.4642 137 15.9259 137 23.0615C137 27.168 133.298 29.7255 128.552 29.7255C125.927 29.7255 123.2 29.0188 121.282 27.6383L123.234 23.7682ZM20.6323 27.8744C18.2423 29.0525 15.146 29.7256 12.0491 29.7256C4.30804 29.7256 0 25.0134 0 18.7535C0 12.0551 4.9809 6.97278 12.6886 6.97278C15.314 6.97278 17.4347 7.37647 19.387 8.01594V12.7619C17.5357 11.887 15.516 11.2474 13.0926 11.2474C8.04387 11.2474 5.48585 14.2091 5.48585 18.4832C5.48585 22.6236 7.90922 25.451 12.3185 25.451C13.5636 25.451 14.7084 25.2828 15.4823 24.9795V18.4163H20.6323V27.8744ZM81.2989 18.3491C81.2989 13.6366 78.8416 11.2471 75.3412 11.2471C71.8408 11.2471 69.3834 13.6366 69.3834 18.3491C69.3834 23.0614 71.8407 25.4509 75.3412 25.4509C78.8415 25.4509 81.2989 23.0614 81.2989 18.3491ZM63.8977 18.3491C63.8977 11.6172 68.5764 6.97253 75.3412 6.97253C82.107 6.97253 86.7852 11.6172 86.7852 18.3491C86.7852 25.0807 82.1071 29.7253 75.3412 29.7253C68.5763 29.7253 63.8977 25.0806 63.8977 18.3491ZM101.964 25.0467C107.113 25.0467 109.234 21.9165 109.234 18.2819C109.234 13.9734 106.642 11.5504 101.862 11.5504H99.506V25.0467H101.964ZM94.3568 7.20795H102.368C110.143 7.20795 114.72 11.3818 114.72 18.1137C114.72 25.1146 109.335 29.3886 101.829 29.3886H94.3569V7.20783L94.3568 7.20795Z" fill="#5E2F26"/>
<path d="M37.37 27.9009C34.0736 26.2074 31.9255 22.8964 31.7318 19.1831C31.7167 19.1103 31.7089 19.0347 31.7089 18.9575V17.2197C28.1669 16.698 26.1496 15.3484 26.0366 15.2712C25.7356 15.0655 25.5545 14.7252 25.5518 14.3604C25.5491 13.9961 25.7257 13.6531 26.0237 13.4436C26.0723 13.4089 26.4844 13.127 28.2575 12.1075C28.0341 11.8707 27.9227 11.5447 27.9615 11.2147C28.0078 10.8168 28.2643 10.4748 28.6331 10.3191C28.6665 10.3048 32.1625 8.78983 34.4147 5.80648C34.5971 5.56482 34.7687 5.30605 34.9507 5.03223L34.9945 4.9662C35.4863 4.22644 36.2324 3.70107 37.0958 3.48742C38.7036 3.0896 40.3509 3.84109 41.1038 5.31412C41.1755 5.45415 41.3366 5.58843 41.5457 5.68247L41.9476 5.8631C42.3026 6.02318 42.5487 6.3568 42.5955 6.743C42.6428 7.12969 42.4845 7.51272 42.1781 7.75303C41.9467 7.93451 41.8241 8.21823 41.8495 8.51259C41.9675 9.85623 42.0421 13.2181 40.1895 15.4046C39.7085 15.9721 39.1397 16.4194 38.4874 16.7439V18.8613C38.5635 20.0375 39.2237 21.1017 40.2221 21.6993C40.6041 21.2075 41.0179 20.7371 41.4632 20.2919C42.9635 18.7921 44.7186 17.6495 46.6813 16.8945V13.362C46.029 13.0371 45.4601 12.5899 44.979 12.0219C43.1265 9.8363 43.2005 6.47457 43.3191 5.13031C43.3449 4.83608 43.2222 4.55284 42.9914 4.37185C42.6845 4.13191 42.5258 3.74876 42.5725 3.36219C42.6195 2.97599 42.865 2.64188 43.22 2.4818L43.6224 2.3008C43.832 2.20627 43.9929 2.07199 44.0652 1.9316C44.8176 0.459306 46.4667 -0.292433 48.0727 0.105755C48.9361 0.318913 49.6822 0.844287 50.1745 1.58453L50.2146 1.64556C50.398 1.92072 50.5705 2.1812 50.7535 2.42432C53.0061 5.40731 56.5024 6.92289 56.5371 6.93806C56.9046 7.09496 57.1606 7.43751 57.2067 7.83398C57.2446 8.16356 57.134 8.48911 56.9113 8.7255C58.6841 9.74494 59.0956 10.0268 59.1448 10.0612C59.4427 10.2712 59.6194 10.6141 59.6167 10.9785C59.614 11.3433 59.4329 11.6837 59.1324 11.8892C59.0192 11.9665 57.0014 13.3156 53.4597 13.8374V15.9564C54.0197 16.0076 54.5765 16.0898 55.1268 16.203C56.2007 16.4246 56.9936 17.3532 57.0548 18.4614C57.0578 18.5176 57.0597 18.5715 57.0592 18.6264C57.0312 26.8755 50.2939 33.5895 42.0403 33.5895C33.7587 33.5895 27.0214 26.8524 27.0214 18.5706C27.0214 17.9565 27.5191 17.4584 28.1337 17.4584C28.7483 17.4584 29.2464 17.9565 29.2464 18.5706C29.2464 23.8661 32.4792 28.4194 37.075 30.3616C37.1056 29.5307 37.2052 28.7079 37.3704 27.9013L37.37 27.9009ZM38.9909 23.5536C37.4616 22.5985 36.4407 20.9607 36.278 19.1443C36.2677 19.0835 36.2624 19.0212 36.2624 18.9575V18.9204C36.2576 18.8253 36.2549 18.7295 36.2549 18.6334C36.2549 18.5897 36.2576 18.5468 36.2624 18.5046V17.3499L36.1494 17.3596C35.5898 17.4033 35.0501 17.4234 34.5328 17.4234C34.3298 17.4234 34.1303 17.42 33.9338 17.4142V18.494C33.9397 18.5397 33.9425 18.5863 33.9425 18.6335C33.9425 21.5756 35.5033 24.2507 37.9959 25.7076C38.27 24.9655 38.6026 24.2451 38.9909 23.5536ZM39.2903 31.0667C40.0092 31.2249 40.7503 31.3222 41.5088 31.3533C41.2451 28.365 42.3228 25.3677 44.4525 23.2372C47.1211 20.5696 51.0728 19.6033 54.6555 20.7007C54.7701 20.0218 54.8317 19.3252 54.8342 18.6149C54.8279 18.4842 54.7624 18.3995 54.6771 18.3817C53.6513 18.1704 52.5972 18.0855 51.5469 18.1293C50.1755 18.1859 48.8319 18.4602 47.5519 18.9436C45.8519 19.5858 44.3329 20.5683 43.0365 21.8647C40.5949 24.3068 39.2498 27.6293 39.2904 31.0668L39.2903 31.0667ZM43.7332 31.2515C44.4685 31.1534 45.1848 30.9931 45.8759 30.7749C45.7817 29.1256 46.3925 27.5184 47.5632 26.3481C49.0366 24.8741 51.1746 24.3096 53.1787 24.853C53.5381 24.219 53.845 23.5517 54.0932 22.8568C51.268 21.953 48.1344 22.7021 46.0258 24.8107C44.312 26.5245 43.487 28.8552 43.7332 31.2515ZM48.1484 29.8061C49.5229 29.055 50.7459 28.0588 51.7577 26.8771C50.7905 26.8505 49.84 27.2172 49.136 27.9211C48.6172 28.4399 48.2766 29.0987 48.1484 29.8061ZM48.9061 16.2307C49.6708 16.0658 50.4486 15.9606 51.2346 15.9164V14.0317C51.038 14.0377 50.8386 14.0409 50.6355 14.0409C50.1173 14.0409 49.5786 14.0213 49.0189 13.9775L48.9061 13.9679V16.2304V16.2307ZM45.307 3.85467C45.4984 4.31095 45.58 4.81357 45.5349 5.32501C45.4619 6.15636 45.3285 8.99308 46.6762 10.5839C47.2752 11.2906 48.0975 11.6751 49.1904 11.7599C52.3029 11.9986 54.6867 11.4134 56.1636 10.8626C55.7988 10.6513 55.36 10.3998 54.8328 10.1009C54.2129 10.4509 53.5292 10.7851 52.9178 10.9635C51.9884 11.2356 51.0229 11.273 50.0493 11.0776C47.9313 10.6516 46.5993 9.06585 46.395 6.72625C46.342 6.11404 46.7947 5.57436 47.4065 5.52129C48.0175 5.46699 48.5585 5.92094 48.612 6.53278C48.7699 8.34517 49.7581 8.75009 50.4877 8.89647C51.1142 9.02219 51.7048 8.99993 52.2935 8.82823C52.7618 8.69126 53.3535 8.38932 53.9084 8.06561C52.5009 7.22582 50.5177 5.80452 48.9773 3.7638C48.7538 3.46773 48.554 3.16713 48.361 2.87595L48.3208 2.81529C48.138 2.54062 47.8601 2.34483 47.5385 2.26534C46.9396 2.11736 46.3256 2.39693 46.0454 2.94407C45.868 3.29151 45.6177 3.59834 45.3069 3.85479L45.307 3.85467ZM29.0044 14.245C30.4811 14.7953 32.8647 15.3827 35.9776 15.1419C37.0705 15.057 37.8934 14.6726 38.4918 13.9663C39.8395 12.3756 39.7058 9.53925 39.6331 8.70753C39.588 8.19597 39.6696 7.69347 39.8614 7.2367C39.5496 6.98074 39.2999 6.67391 39.1225 6.32696C38.8423 5.77835 38.2283 5.49866 37.6294 5.64725C37.3082 5.72662 37.0304 5.92241 36.8471 6.19855L36.8033 6.26361C36.6115 6.5521 36.4131 6.85099 36.1906 7.14608C34.6507 9.18643 32.6676 10.6077 31.26 11.447C31.8152 11.7717 32.4075 12.074 32.8744 12.2105C33.4621 12.3827 34.0529 12.4054 34.6795 12.2784C35.4096 12.1321 36.3978 11.7271 36.5561 9.91567C36.6092 9.30285 37.1493 8.84706 37.7606 8.90369C38.3729 8.95713 38.8257 9.49632 38.7726 10.1086C38.5684 12.4482 37.2362 14.0342 35.1183 14.4595C34.1448 14.6561 33.1797 14.6177 32.2499 14.3458C31.6381 14.1673 30.9548 13.834 30.3348 13.4833C29.8077 13.7821 29.3688 14.0342 29.004 14.245H29.0044Z" fill="#4479BC"/>
</svg>
