<svg width="120" height="120" viewBox="0 0 120 120" fill="none" xmlns="http://www.w3.org/2000/svg">
<path d="M27.6866 110.361L29.9285 111.482C39.0698 116.919 49.5206 119.761 60.1566 119.702C92.8995 119.627 119.802 92.6611 119.802 59.9183C119.802 44.0943 113.517 28.898 102.342 17.696C91.1806 6.37819 75.9322 0 60.0408 0C27.4474 0 0.630615 26.8206 0.630615 59.4102C0.630615 59.6681 0.630616 59.9221 0.634362 60.1799C0.732529 71.2602 3.83157 82.1067 9.60198 91.5664L11.0965 93.8083L5.11817 115.854L27.6866 110.361V110.361Z" fill="#00E676"/>
<path fill-rule="evenodd" clip-rule="evenodd" d="M41.7898 28.3061C40.4082 25.2344 38.9531 25.1727 37.638 25.1193C36.5626 25.073 35.3318 25.0753 34.1033 25.0753C32.8736 25.0753 30.8749 25.5382 29.1847 27.3839C27.4933 29.2296 22.7266 33.6924 22.7266 42.7688C22.7266 51.8464 29.3378 60.6166 30.26 61.8486C31.1823 63.0795 43.0219 82.3006 61.7717 89.6951C77.3548 95.841 80.5251 94.6185 83.9079 94.311C87.2906 94.0036 94.8216 89.8482 96.3587 85.5409C97.897 81.2335 97.897 77.5422 97.4352 76.7695C96.9735 76.0015 95.7439 75.5398 93.8994 74.6176C92.0549 73.6953 82.9856 69.2313 81.2943 68.6165C79.6029 68.0005 78.3732 67.6943 77.1436 69.5411C75.9127 71.3856 72.3804 75.5398 71.3039 76.7695C70.2274 78.0027 69.1508 78.157 67.3063 77.2336C65.4619 76.309 59.5201 74.3624 52.4722 68.0776C46.9886 63.1887 43.2854 57.1496 42.2088 55.3028C41.1335 53.4583 42.191 52.5467 43.0195 51.539C44.5114 49.7242 47.0147 46.4614 47.6295 45.2317C48.2443 43.9997 47.9369 42.9231 47.4764 41.9997C47.0147 41.0775 43.429 31.9548 41.7898 28.3061V28.3061Z" fill="white"/>
</svg>
