<svg width="18" height="18" viewBox="0 0 18 18" fill="none" xmlns="http://www.w3.org/2000/svg">
<path d="M3.61694 2.22982C5.05483 0.791896 6.96667 0 9.00018 0C11.0337 0 12.9456 0.791896 14.3835 2.22982C15.8214 3.66779 16.6133 5.57959 16.6133 7.61307C16.6133 11.7268 12.7237 15.1484 10.634 16.9865C10.3436 17.242 10.0928 17.4626 9.89304 17.6492C9.64273 17.883 9.32144 18 9.00022 18C8.67892 18 8.3577 17.883 8.10735 17.6492C7.90756 17.4626 7.65679 17.242 7.36639 16.9865C5.27674 15.1483 1.38711 11.7268 1.38711 7.61307C1.38715 5.57959 2.17901 3.66779 3.61694 2.22982ZM8.06284 16.1949C8.3596 16.4559 8.61585 16.6814 8.82714 16.8787C8.92421 16.9693 9.07622 16.9694 9.17333 16.8787C9.38458 16.6813 9.64087 16.4559 9.93762 16.1949C11.9022 14.4668 15.5589 11.25 15.5589 7.6131C15.5589 3.99664 12.6167 1.05444 9.00025 1.05444C5.38379 1.05444 2.44159 3.99664 2.44159 7.6131C2.44156 11.25 6.09831 14.4668 8.06284 16.1949Z" fill="white"/>
<path d="M9.00047 3.97049C10.8504 3.97049 12.3555 5.4755 12.3555 7.32546C12.3555 9.17542 10.8504 10.6804 9.00047 10.6804C7.15051 10.6804 5.6455 9.17542 5.6455 7.32546C5.6455 5.4755 7.15051 3.97049 9.00047 3.97049ZM9.00047 9.62598C10.269 9.62598 11.3011 8.59394 11.3011 7.32542C11.3011 6.05691 10.269 5.02486 9.00047 5.02486C7.73192 5.02486 6.69991 6.05691 6.69991 7.32542C6.69991 8.59394 7.73192 9.62598 9.00047 9.62598Z" fill="white"/>
</svg>
