<svg width="18" height="18" viewBox="0 0 18 18" fill="none" xmlns="http://www.w3.org/2000/svg">
<path d="M12.7507 17.9926C12.8319 17.9963 12.9094 18 12.9906 18C13.8578 18 14.5811 17.6863 15.1494 17.07C15.1531 17.0664 15.1605 17.059 15.1642 17.0553C15.3671 16.8117 15.5959 16.5903 15.8395 16.3578C16.0056 16.1991 16.1753 16.0368 16.334 15.867C17.0905 15.0773 17.0868 14.0772 16.3266 13.317L14.2232 11.2135C13.8615 10.8371 13.4297 10.6379 12.9721 10.6379C12.5182 10.6379 12.0828 10.8334 11.7101 11.2062L10.4664 12.4498C10.3557 12.3871 10.2413 12.3317 10.1306 12.2763C9.99039 12.2062 9.86123 12.1398 9.74683 12.0697C8.60653 11.3464 7.57324 10.4017 6.58424 9.18758C6.08605 8.56023 5.75762 8.0362 5.52513 7.49742C5.84988 7.2022 6.15248 6.8959 6.44401 6.59699C6.55103 6.48997 6.65805 6.37926 6.76876 6.26855C7.55848 5.47883 7.55848 4.5009 6.76876 3.71487L5.72441 2.67052C5.60263 2.54874 5.48454 2.42696 5.36645 2.30887C5.13396 2.07269 4.89409 1.82544 4.65422 1.60402C4.29257 1.24237 3.8645 1.05417 3.41059 1.05417C2.96037 1.05417 2.52492 1.24237 2.14851 1.60402L0.838455 2.91039C0.358717 3.39012 0.0856353 3.97319 0.0265905 4.64851C-0.0398348 5.4899 0.115158 6.38295 0.513709 7.46052C1.12999 9.12484 2.05625 10.6711 3.42904 12.3243C5.10075 14.3171 7.10827 15.8928 9.40363 17.0036C10.2782 17.4206 11.4481 17.9077 12.7507 17.9926ZM4.12651 11.7449C2.82014 10.1729 1.94554 8.71153 1.36617 7.14684C1.00821 6.18368 0.875358 5.43455 0.930713 4.72232C0.971306 4.26103 1.14844 3.87724 1.48057 3.54881L2.78324 2.24613C2.98252 2.05424 3.20024 1.9546 3.41428 1.9546C3.62463 1.9546 3.83128 2.05424 4.03056 2.24982C4.26305 2.46755 4.48816 2.69635 4.72434 2.93622C4.84242 3.058 4.9642 3.18347 5.08967 3.30525L6.13403 4.3496C6.5621 4.77767 6.5621 5.19837 6.13403 5.62644C6.02332 5.73715 5.91261 5.84786 5.80559 5.95857C5.48085 6.287 5.17824 6.59699 4.84242 6.8959C4.83504 6.90328 4.83135 6.90697 4.82397 6.91435C4.52506 7.21327 4.56934 7.50111 4.64315 7.71515C4.64684 7.72622 4.65053 7.7336 4.65422 7.74467C4.92361 8.39416 5.30371 9.01044 5.88678 9.7485C6.93851 11.0438 8.0456 12.0512 9.27078 12.8299C9.42208 12.9258 9.58076 13.007 9.73575 13.0845C9.87599 13.1546 10.0051 13.2211 10.1195 13.2912C10.1343 13.2986 10.1454 13.3059 10.1601 13.3133C10.2782 13.3724 10.3926 13.4019 10.5107 13.4019C10.8022 13.4019 10.9868 13.2174 11.0458 13.1546L12.3559 11.8446C12.5551 11.6453 12.7692 11.542 12.9795 11.542C13.2378 11.542 13.4482 11.7044 13.5847 11.8446L15.6956 13.9554C16.2122 14.4721 15.976 14.9371 15.6845 15.2433C15.5369 15.402 15.3819 15.5496 15.2195 15.7083C14.9723 15.9445 14.7177 16.1918 14.4852 16.4685C14.0866 16.8966 13.6143 17.0959 12.998 17.0959C12.9389 17.0959 12.8762 17.0922 12.8172 17.0885C11.6695 17.0147 10.6067 16.5682 9.80587 16.1881C7.62122 15.1363 5.71333 13.6418 4.12651 11.7449Z" fill="white"/>
<path d="M9.89363 3.29418C9.64638 3.25359 9.41389 3.41965 9.3733 3.66321C9.3327 3.91046 9.49877 4.14295 9.74233 4.18354C10.7572 4.35698 11.6797 4.83672 12.4178 5.57109C13.1522 6.30546 13.6319 7.23172 13.8053 8.24655C13.8422 8.46797 14.0341 8.62296 14.2519 8.62296C14.2777 8.62296 14.3035 8.61927 14.3294 8.61558C14.5766 8.57499 14.7427 8.33881 14.6984 8.09525C14.4954 6.89591 13.9271 5.79989 13.0599 4.93267C12.1853 4.06176 11.093 3.49715 9.89363 3.29418Z" fill="white"/>
<path d="M17.5373 8.46797C17.5631 8.46797 17.5889 8.46428 17.6148 8.46059C17.862 8.41999 18.0281 8.18381 17.9838 7.94025C17.648 5.95488 16.7106 4.15032 15.2751 2.7148C13.8359 1.27928 12.0313 0.341941 10.046 0.00612388C9.79872 -0.0344693 9.56623 0.131594 9.52564 0.375153C9.48505 0.622403 9.65111 0.854891 9.89467 0.895485C11.6918 1.20178 13.3303 2.05055 14.633 3.35322C15.9357 4.65589 16.7844 6.29438 17.0907 8.09156C17.1276 8.31297 17.3195 8.46797 17.5373 8.46797Z" fill="white"/>
</svg>
